<?xml version="1.0" encoding="UTF-8"?>
<svg width="284px" height="168px" viewBox="0 0 284 168" version="1.1" xmlns="http://www.w3.org/2000/svg" xmlns:xlink="http://www.w3.org/1999/xlink">
    <!-- Generator: Sketch 64 (93537) - https://sketch.com -->
    <title>Group 3</title>
    <desc>Created with Sketch.</desc>
    <defs>
        <linearGradient x1="126.711281%" y1="76.1005919%" x2="50%" y2="67.4965285%" id="linearGradient-1">
            <stop stop-color="#A74FFD" offset="0%"></stop>
            <stop stop-color="#6E27FB" offset="100%"></stop>
        </linearGradient>
    </defs>
    <g id="Page-1" stroke="none" stroke-width="1" fill="none" fill-rule="evenodd">
        <g id="Desktop-HD-Copy-7" transform="translate(-100.000000, -432.000000)">
            <g id="Group-3" transform="translate(100.000000, 432.000000)">
                <path d="M4,0 L280,0 C282.209139,-4.05812251e-16 284,1.790861 284,4 L284,164 C284,166.209139 282.209139,168 280,168 L4,168 C1.790861,168 2.705415e-16,166.209139 0,164 L0,50.9877592 L0,50.9877592 L0,4 C-2.705415e-16,1.790861 1.790861,4.05812251e-16 4,0 Z" id="Rectangle" fill="url(#linearGradient-1)"></path>
                <path d="M62.0820312,43.2094727 C62.719401,43.2094727 63.2565104,43.0751953 63.6933594,42.8066406 C63.9475911,42.6526693 64.2340495,42.3876953 64.5527344,42.0117188 L64.5527344,42.0117188 L64.7192383,43 L65.8149414,43 L65.8149414,38.7514648 L62.5170898,38.7514648 L62.5170898,40.0727539 L64.3486328,40.0727539 C64.266276,40.5919596 64.0478516,41.0118001 63.6933594,41.3322754 C63.3388672,41.6527507 62.8841146,41.8129883 62.3291016,41.8129883 C61.7633464,41.8129883 61.2584635,41.6106771 60.8144531,41.2060547 C60.3704427,40.8014323 60.1484375,40.1121419 60.1484375,39.1381836 C60.1484375,38.1713867 60.3534342,37.4471842 60.7634277,36.9655762 C61.1734212,36.4839681 61.6971029,36.2431641 62.3344727,36.2431641 C62.6674805,36.2431641 62.9700521,36.3022461 63.2421875,36.4204102 C63.7291667,36.6352539 64.035319,37.0130208 64.1606445,37.5537109 L64.1606445,37.5537109 L65.7880859,37.5537109 C65.6985677,36.7910156 65.3485514,36.154541 64.7380371,35.6442871 C64.1275228,35.1340332 63.3191732,34.8789062 62.3129883,34.8789062 C61.152832,34.8789062 60.2200521,35.265625 59.5146484,36.0390625 C58.8092448,36.8125 58.456543,37.8401693 58.456543,39.1220703 C58.456543,40.3896484 58.8056641,41.3886719 59.5039062,42.1191406 C60.1735026,42.8460286 61.0328776,43.2094727 62.0820312,43.2094727 Z M68.6593294,43 L68.6593294,35.0830078 L67.1285677,35.0830078 L67.1285677,43 L68.6593294,43 Z M72.6101628,43.2041016 C73.6163477,43.2041016 74.3665104,42.8988444 74.860651,42.2883301 C75.3547917,41.6778158 75.601862,40.9428711 75.601862,40.0834961 C75.601862,39.238444 75.3547917,38.5061849 74.860651,37.8867188 C74.3665104,37.2672526 73.6163477,36.9575195 72.6101628,36.9575195 C71.6039779,36.9575195 70.8538151,37.2672526 70.3596745,37.8867188 C69.8655339,38.5061849 69.6184635,39.238444 69.6184635,40.0834961 C69.6184635,40.9428711 69.8655339,41.6778158 70.3596745,42.2883301 C70.8538151,42.8988444 71.6039779,43.2041016 72.6101628,43.2041016 Z M72.6047917,41.9204102 C72.1572005,41.9204102 71.8125553,41.7610677 71.5708561,41.4423828 C71.3291569,41.1236979 71.2083073,40.6707357 71.2083073,40.0834961 C71.2083073,39.4962565 71.3291569,39.0441895 71.5708561,38.7272949 C71.8125553,38.4104004 72.1572005,38.2519531 72.6047917,38.2519531 C73.0523828,38.2519531 73.3961328,38.4104004 73.6360417,38.7272949 C73.8759505,39.0441895 73.9959049,39.4962565 73.9959049,40.0834961 C73.9959049,40.6707357 73.8759505,41.1236979 73.6360417,41.4423828 C73.3961328,41.7610677 73.0523828,41.9204102 72.6047917,41.9204102 Z M79.7030859,43.1557617 C80.4729427,43.1557617 81.0727148,42.8567708 81.5024023,42.2587891 C81.9320898,41.6608073 82.1469336,40.9070638 82.1469336,39.9975586 C82.1469336,39.1202799 81.9294043,38.4041341 81.4943457,37.8491211 C81.0592871,37.2941081 80.4568294,37.0166016 79.6869727,37.0166016 C79.2608659,37.0166016 78.9099544,37.1061198 78.6342383,37.2851562 C78.4014909,37.4283854 78.1884375,37.6360677 77.9950781,37.9082031 L77.9950781,37.9082031 L77.9950781,35.09375 L76.4696875,35.09375 L76.4696875,43 L77.9682227,43 L77.9682227,42.2641602 C78.1723242,42.5506185 78.3621029,42.7511393 78.5375586,42.8657227 C78.8311784,43.059082 79.2196875,43.1557617 79.7030859,43.1557617 Z M79.2948828,41.8935547 C78.8401302,41.8935547 78.5017513,41.7288411 78.2797461,41.3994141 C78.0577409,41.069987 77.9467383,40.6546224 77.9467383,40.1533203 C77.9467383,39.7272135 78.0004492,39.3798828 78.1078711,39.1113281 C78.3155534,38.6064453 78.696901,38.3540039 79.2519141,38.3540039 C79.7997656,38.3540039 80.1757422,38.6118164 80.3798437,39.1274414 C80.4872656,39.3995768 80.5409766,39.7433268 80.5409766,40.1586914 C80.5409766,40.6778971 80.4317643,41.0968424 80.2133398,41.4155273 C79.9949154,41.7342122 79.688763,41.8935547 79.2948828,41.8935547 Z M85.4317513,43.1933594 C86.3340951,43.1933594 87.035918,42.9086914 87.5372201,42.3393555 C87.8594857,41.9812826 88.0403125,41.6285807 88.0797005,41.28125 L88.0797005,41.28125 L86.5167122,41.28125 C86.4343555,41.453125 86.3394661,41.5874023 86.2320443,41.684082 C86.0351042,41.8631185 85.779082,41.9526367 85.4639779,41.9526367 C85.1667773,41.9526367 84.9125456,41.8792318 84.7012826,41.7324219 C84.3539518,41.4960938 84.1695443,41.0843099 84.1480599,40.4970703 L84.1480599,40.4970703 L88.1548958,40.4970703 C88.1620573,39.9921875 88.145944,39.6054688 88.106556,39.3369141 C88.0385221,38.8785807 87.8899219,38.4757487 87.6607552,38.128418 C87.4065234,37.7345378 87.0842578,37.4462891 86.6939583,37.2636719 C86.3036589,37.0810547 85.8650195,36.9897461 85.3780404,36.9897461 C84.5580534,36.9897461 83.8911426,37.2600911 83.3773079,37.8007812 C82.8634733,38.3414714 82.606556,39.1184896 82.606556,40.1318359 C82.606556,41.2132161 82.891224,41.9938151 83.4605599,42.4736328 C84.0298958,42.9534505 84.6869596,43.1933594 85.4317513,43.1933594 Z M86.5650521,39.4873047 L84.1856576,39.4873047 C84.2357878,39.1077474 84.3584277,38.8069661 84.5535775,38.5849609 C84.7487272,38.3629557 85.0235482,38.2519531 85.3780404,38.2519531 C85.7038867,38.2519531 85.9769173,38.3566895 86.1971322,38.5661621 C86.417347,38.7756348 86.539987,39.0826823 86.5650521,39.4873047 L86.5650521,39.4873047 Z M90.2956706,43 L91.3108073,41.2436523 L92.3205729,43 L94.2273112,43 L92.2292643,40.0083008 L94.1521159,37.15625 L92.3313151,37.15625 L91.3752604,38.8535156 L90.3977214,37.15625 L88.5232096,37.15625 L90.435319,40.0351562 L88.4372721,43 L90.2956706,43 Z" id="Globex" fill="#FFFFFF" fill-rule="nonzero"></path>
                <path d="M60.5688477,54 L60.5688477,51.8334961 L61.9311523,51.8334961 C63.1748047,51.8334961 64.0493164,50.980957 64.0493164,49.7416992 C64.0493164,48.5068359 63.1923828,47.6586914 61.9619141,47.6586914 L59.5844727,47.6586914 L59.5844727,54 L60.5688477,54 Z M61.6982422,51.0073242 L60.5688477,51.0073242 L60.5688477,48.4892578 L61.7026367,48.4892578 C62.5551758,48.4892578 63.0429688,48.9462891 63.0429688,49.7460938 C63.0429688,50.5458984 62.5551758,51.0073242 61.6982422,51.0073242 Z M66.268262,54 L66.268262,51.328125 C66.268262,50.5986328 66.6989261,50.1152344 67.4020511,50.1152344 C68.0700198,50.1152344 68.4127933,50.5239258 68.4127933,51.2050781 L68.4127933,54 L69.3664065,54 L69.3664065,51.0205078 C69.3664065,49.9746094 68.7599612,49.2978516 67.7448245,49.2978516 C67.0416995,49.2978516 66.5363284,49.6098633 66.2814456,50.1503906 L66.259473,50.1503906 L66.259473,47.6586914 L65.3190433,47.6586914 L65.3190433,54 L66.268262,54 Z M72.121485,54.0791016 C72.7279303,54.0791016 73.3124029,53.7539062 73.5804693,53.2397461 L73.602442,53.2397461 L73.602442,54 L74.51211,54 L74.51211,50.8139648 C74.51211,49.8867188 73.7958014,49.293457 72.6751959,49.293457 C71.5326178,49.293457 70.8207037,49.9086914 70.7679693,50.7436523 L71.6644537,50.7436523 C71.7479498,50.3305664 72.0907233,50.0668945 72.6400397,50.0668945 C73.2201178,50.0668945 73.5672858,50.3745117 73.5672858,50.8886719 L73.5672858,51.2446289 L72.3016608,51.3193359 C71.2030279,51.3808594 70.583399,51.8774414 70.583399,52.6860352 C70.583399,53.5166016 71.2162115,54.0791016 72.121485,54.0791016 Z M72.3851568,53.3276367 C71.8753912,53.3276367 71.5414068,53.0639648 71.5414068,52.659668 C71.5414068,52.2641602 71.8622076,52.0136719 72.4291022,51.9741211 L73.5672858,51.9038086 L73.5672858,52.2685547 C73.5672858,52.8706055 73.0487311,53.3276367 72.3851568,53.3276367 Z M76.8672861,54 L76.8672861,51.2314453 C76.8672861,50.5766602 77.2452157,50.1679688 77.8560556,50.1679688 C78.0406259,50.1679688 78.2076181,50.1899414 78.2823251,50.2207031 L78.2823251,49.3374023 C78.2120126,49.3242188 78.0933603,49.3022461 77.9571298,49.3022461 C77.4122079,49.3022461 76.999122,49.6230469 76.8453134,50.1635742 L76.8233407,50.1635742 L76.8233407,49.3769531 L75.9180673,49.3769531 L75.9180673,54 L76.8672861,54 Z M80.3079114,54 L80.3079114,51.1435547 C80.3079114,50.550293 80.7078137,50.1108398 81.2703137,50.1108398 C81.8064465,50.1108398 82.1448254,50.4492188 82.1448254,50.980957 L82.1448254,54 L83.076466,54 L83.076466,51.112793 C83.076466,50.5283203 83.4675793,50.1108398 84.0300793,50.1108398 C84.5925793,50.1108398 84.9133801,50.4536133 84.9133801,51.0512695 L84.9133801,54 L85.8669934,54 L85.8669934,50.8227539 C85.8669934,49.9042969 85.2693371,49.2978516 84.3552746,49.2978516 C83.696095,49.2978516 83.1511731,49.640625 82.9138684,50.203125 L82.8918957,50.203125 C82.7073254,49.6274414 82.2415051,49.2978516 81.5999035,49.2978516 C80.9758801,49.2978516 80.4924817,49.640625 80.2859387,50.1547852 L80.263966,50.1547852 L80.263966,49.3769531 L79.3586926,49.3769531 L79.3586926,54 L80.3079114,54 Z M88.6220718,54.0791016 C89.2285171,54.0791016 89.8129898,53.7539062 90.0810562,53.2397461 L90.1030288,53.2397461 L90.1030288,54 L91.0126968,54 L91.0126968,50.8139648 C91.0126968,49.8867188 90.2963882,49.293457 89.1757827,49.293457 C88.0332046,49.293457 87.3212906,49.9086914 87.2685562,50.7436523 L88.1650406,50.7436523 C88.2485367,50.3305664 88.5913101,50.0668945 89.1406265,50.0668945 C89.7207046,50.0668945 90.0678726,50.3745117 90.0678726,50.8886719 L90.0678726,51.2446289 L88.8022476,51.3193359 C87.7036148,51.3808594 87.0839859,51.8774414 87.0839859,52.6860352 C87.0839859,53.5166016 87.7167984,54.0791016 88.6220718,54.0791016 Z M88.8857437,53.3276367 C88.3759781,53.3276367 88.0419937,53.0639648 88.0419937,52.659668 C88.0419937,52.2641602 88.3627945,52.0136719 88.929689,51.9741211 L90.0678726,51.9038086 L90.0678726,52.2685547 C90.0678726,52.8706055 89.5493179,53.3276367 88.8857437,53.3276367 Z M94.3961932,54.0878906 C95.5080096,54.0878906 96.2946307,53.4199219 96.3957049,52.4355469 L95.4816424,52.4355469 C95.3717791,52.9716797 94.9894549,53.2924805 94.4049823,53.2924805 C93.666701,53.2924805 93.178908,52.7036133 93.178908,51.6884766 C93.178908,50.6953125 93.6623065,50.0844727 94.3961932,50.0844727 C95.0158221,50.0844727 95.3849627,50.4755859 95.4816424,50.9677734 L96.3869159,50.9677734 C96.3034198,50.0581055 95.5783221,49.293457 94.3874041,49.293457 C93.0734393,49.293457 92.2121112,50.2207031 92.2121112,51.6884766 C92.2121112,53.1826172 93.0734393,54.0878906 94.3961932,54.0878906 Z M99.528713,54.0878906 C100.587795,54.0878906 101.3876,53.4858398 101.519436,52.6420898 L100.618557,52.6420898 C100.491115,53.0463867 100.091213,53.3188477 99.5506857,53.3188477 C98.7904318,53.3188477 98.3070333,52.7871094 98.3070333,51.9829102 L98.3070333,51.9257812 L101.57217,51.9257812 L101.57217,51.6005859 C101.57217,50.1987305 100.772365,49.293457 99.4891623,49.293457 C98.1839865,49.293457 97.3490255,50.2602539 97.3490255,51.7104492 C97.3490255,53.1694336 98.1708029,54.0878906 99.528713,54.0878906 Z M100.622951,51.262207 L98.3114279,51.262207 C98.3597677,50.5634766 98.825588,50.0581055 99.4891623,50.0581055 C100.152736,50.0581055 100.600979,50.5546875 100.622951,51.262207 Z M104.393166,54.0834961 C105.100686,54.0834961 105.570901,53.7714844 105.825784,53.2177734 L105.847756,53.2177734 L105.847756,54 L106.757424,54 L106.757424,49.3769531 L105.808206,49.3769531 L105.808206,52.0708008 C105.808206,52.7915039 105.39512,53.2661133 104.709573,53.2661133 C104.054788,53.2661133 103.720803,52.8881836 103.720803,52.1850586 L103.720803,49.3769531 L102.771584,49.3769531 L102.771584,52.3696289 C102.771584,53.4287109 103.386819,54.0834961 104.393166,54.0834961 Z M109.758596,54.0307617 C109.969534,54.0307617 110.180471,54.0131836 110.28594,53.9868164 L110.28594,53.2353516 C110.224417,53.2485352 110.070608,53.2573242 109.973928,53.2573242 C109.58721,53.2573242 109.411428,53.0771484 109.411428,52.6772461 L109.411428,50.128418 L110.290335,50.128418 L110.290335,49.3769531 L109.411428,49.3769531 L109.411428,48.2827148 L108.457815,48.2827148 L108.457815,49.3769531 L107.785452,49.3769531 L107.785452,50.128418 L108.457815,50.128418 L108.457815,52.7827148 C108.457815,53.6748047 108.822561,54.0307617 109.758596,54.0307617 Z M112.061038,48.6298828 C112.364261,48.6298828 112.60596,48.3837891 112.60596,48.0849609 C112.60596,47.7817383 112.364261,47.5400391 112.061038,47.5400391 C111.757815,47.5400391 111.511722,47.7817383 111.511722,48.0849609 C111.511722,48.3837891 111.757815,48.6298828 112.061038,48.6298828 Z M112.535648,54 L112.535648,49.3769531 L111.586429,49.3769531 L111.586429,54 L112.535648,54 Z M115.971878,54.0878906 C117.083695,54.0878906 117.870316,53.4199219 117.97139,52.4355469 L117.057328,52.4355469 C116.947464,52.9716797 116.56514,53.2924805 115.980667,53.2924805 C115.242386,53.2924805 114.754593,52.7036133 114.754593,51.6884766 C114.754593,50.6953125 115.237992,50.0844727 115.971878,50.0844727 C116.591507,50.0844727 116.960648,50.4755859 117.057328,50.9677734 L117.962601,50.9677734 C117.879105,50.0581055 117.154007,49.293457 115.963089,49.293457 C114.649124,49.293457 113.787796,50.2207031 113.787796,51.6884766 C113.787796,53.1826172 114.649124,54.0878906 115.971878,54.0878906 Z M120.484769,54.0791016 C121.091215,54.0791016 121.675687,53.7539062 121.943754,53.2397461 L121.965726,53.2397461 L121.965726,54 L122.875394,54 L122.875394,50.8139648 C122.875394,49.8867188 122.159086,49.293457 121.03848,49.293457 C119.895902,49.293457 119.183988,49.9086914 119.131254,50.7436523 L120.027738,50.7436523 C120.111234,50.3305664 120.454008,50.0668945 121.003324,50.0668945 C121.583402,50.0668945 121.93057,50.3745117 121.93057,50.8886719 L121.93057,51.2446289 L120.664945,51.3193359 C119.566312,51.3808594 118.946683,51.8774414 118.946683,52.6860352 C118.946683,53.5166016 119.579496,54.0791016 120.484769,54.0791016 Z M120.748441,53.3276367 C120.238675,53.3276367 119.904691,53.0639648 119.904691,52.659668 C119.904691,52.2641602 120.225492,52.0136719 120.792386,51.9741211 L121.93057,51.9038086 L121.93057,52.2685547 C121.93057,52.8706055 121.412015,53.3276367 120.748441,53.3276367 Z M125.265727,54 L125.265727,47.6586914 L124.316508,47.6586914 L124.316508,54 L125.265727,54 Z M131.316411,54.1054688 C132.792973,54.1054688 133.733403,53.3540039 133.733403,52.1586914 C133.733403,51.2358398 133.188481,50.7041016 131.861333,50.4228516 L131.166997,50.277832 C130.345219,50.1020508 130.020024,49.7944336 130.020024,49.3330078 C130.020024,48.7529297 130.564946,48.3925781 131.307622,48.3925781 C132.076665,48.3925781 132.599614,48.7836914 132.661137,49.4208984 L133.614751,49.4208984 C133.583989,48.3134766 132.665532,47.5532227 131.320805,47.5532227 C129.971684,47.5532227 129.018071,48.300293 129.018071,49.3857422 C129.018071,50.2998047 129.593754,50.8886719 130.863774,51.1567383 L131.553715,51.3017578 C132.40186,51.4863281 132.735844,51.7939453 132.735844,52.2861328 C132.735844,52.8530273 132.160161,53.2661133 131.355962,53.2661133 C130.512212,53.2661133 129.914555,52.8881836 129.826665,52.2597656 L128.868657,52.2597656 C128.93018,53.3891602 129.883794,54.1054688 131.316411,54.1054688 Z M136.963091,54.0878906 C138.022173,54.0878906 138.821977,53.4858398 138.953813,52.6420898 L138.052934,52.6420898 C137.925493,53.0463867 137.525591,53.3188477 136.985063,53.3188477 C136.224809,53.3188477 135.741411,52.7871094 135.741411,51.9829102 L135.741411,51.9257812 L139.006548,51.9257812 L139.006548,51.6005859 C139.006548,50.1987305 138.206743,49.293457 136.92354,49.293457 C135.618364,49.293457 134.783403,50.2602539 134.783403,51.7104492 C134.783403,53.1694336 135.605181,54.0878906 136.963091,54.0878906 Z M138.057329,51.262207 L135.745806,51.262207 C135.794145,50.5634766 136.259966,50.0581055 136.92354,50.0581055 C137.587114,50.0581055 138.035356,50.5546875 138.057329,51.262207 Z M141.177154,54 L141.177154,51.2314453 C141.177154,50.5766602 141.555083,50.1679688 142.165923,50.1679688 C142.350493,50.1679688 142.517486,50.1899414 142.592193,50.2207031 L142.592193,49.3374023 C142.52188,49.3242188 142.403228,49.3022461 142.266997,49.3022461 C141.722075,49.3022461 141.308989,49.6230469 141.155181,50.1635742 L141.133208,50.1635742 L141.133208,49.3769531 L140.227935,49.3769531 L140.227935,54 L141.177154,54 Z M145.958111,54 L147.614849,49.3769531 L146.621685,49.3769531 L145.461529,53.0727539 L145.443951,53.0727539 L144.283794,49.3769531 L143.273052,49.3769531 L144.93858,54 L145.958111,54 Z M149.152642,48.6298828 C149.455865,48.6298828 149.697564,48.3837891 149.697564,48.0849609 C149.697564,47.7817383 149.455865,47.5400391 149.152642,47.5400391 C148.84942,47.5400391 148.603326,47.7817383 148.603326,48.0849609 C148.603326,48.3837891 148.84942,48.6298828 149.152642,48.6298828 Z M149.627252,54 L149.627252,49.3769531 L148.678033,49.3769531 L148.678033,54 L149.627252,54 Z M153.063483,54.0878906 C154.175299,54.0878906 154.96192,53.4199219 155.062994,52.4355469 L154.148932,52.4355469 C154.039068,52.9716797 153.656744,53.2924805 153.072272,53.2924805 C152.33399,53.2924805 151.846197,52.7036133 151.846197,51.6884766 C151.846197,50.6953125 152.329596,50.0844727 153.063483,50.0844727 C153.683111,50.0844727 154.052252,50.4755859 154.148932,50.9677734 L155.054205,50.9677734 C154.970709,50.0581055 154.245611,49.293457 153.054693,49.293457 C151.740729,49.293457 150.879401,50.2207031 150.879401,51.6884766 C150.879401,53.1826172 151.740729,54.0878906 153.063483,54.0878906 Z M158.196002,54.0878906 C159.255084,54.0878906 160.054889,53.4858398 160.186725,52.6420898 L159.285846,52.6420898 C159.158405,53.0463867 158.758502,53.3188477 158.217975,53.3188477 C157.457721,53.3188477 156.974323,52.7871094 156.974323,51.9829102 L156.974323,51.9257812 L160.239459,51.9257812 L160.239459,51.6005859 C160.239459,50.1987305 159.439655,49.293457 158.156452,49.293457 C156.851276,49.293457 156.016315,50.2602539 156.016315,51.7104492 C156.016315,53.1694336 156.838092,54.0878906 158.196002,54.0878906 Z M159.290241,51.262207 L156.978717,51.262207 C157.027057,50.5634766 157.492877,50.0581055 158.156452,50.0581055 C158.820026,50.0581055 159.268268,50.5546875 159.290241,51.262207 Z M163.196686,54.0878906 C164.28653,54.0878906 165.073151,53.5078125 165.073151,52.6640625 C165.073151,51.9960938 164.7128,51.6269531 163.767975,51.4072266 L163.016511,51.2358398 C162.515534,51.121582 162.304596,50.9238281 162.304596,50.6337891 C162.304596,50.2646484 162.64737,50.0141602 163.16153,50.0141602 C163.693268,50.0141602 164.022858,50.2954102 164.075593,50.7436523 L164.967682,50.7436523 C164.936921,49.8911133 164.23819,49.293457 163.16153,49.293457 C162.098053,49.293457 161.37735,49.8603516 161.37735,50.6865234 C161.37735,51.3588867 161.812409,51.7807617 162.691315,51.9829102 L163.44278,52.1586914 C163.948151,52.2729492 164.119538,52.4487305 164.119538,52.7475586 C164.119538,53.1254883 163.767975,53.362793 163.196686,53.362793 C162.616608,53.362793 162.287018,53.1254883 162.199128,52.6420898 L161.258698,52.6420898 C161.346589,53.5209961 162.040925,54.0878906 163.196686,54.0878906 Z" id="PharmaceuticalServices" fill="#EDEDED" fill-rule="nonzero"></path>
                <path d="M32.4707031,88 C35.4238281,88 37.1601562,86.1679688 37.1601562,83.0439453 C37.1601562,79.9199219 35.4169922,78.1357422 32.4707031,78.1357422 L28.8681641,78.1357422 L28.8681641,88 L32.4707031,88 Z M32.2861328,86.5097656 L30.6318359,86.5097656 L30.6318359,79.6259766 L32.2861328,79.6259766 C34.2548828,79.6259766 35.3623047,80.8427734 35.3623047,83.0507812 C35.3623047,85.2998047 34.2685547,86.5097656 32.2861328,86.5097656 Z M41.2612635,88.1162109 C42.190951,88.1162109 43.1001307,87.6308594 43.5171229,86.8447266 L43.5513026,86.8447266 L43.5513026,88 L45.1919276,88 L45.1919276,83.0097656 C45.1919276,81.5537109 44.0229822,80.6035156 42.2251307,80.6035156 C40.3794276,80.6035156 39.2241541,81.5742188 39.1489588,82.9277344 L40.7280604,82.9277344 C40.8374354,82.3261719 41.3501307,81.9365234 42.1567713,81.9365234 C42.9975916,81.9365234 43.5102869,82.3740234 43.5102869,83.1328125 L43.5102869,83.6523438 L41.5962244,83.7617188 C39.8325526,83.8710938 38.8413416,84.6435547 38.8413416,85.9287109 C38.8413416,87.234375 39.8598963,88.1162109 41.2612635,88.1162109 Z M41.7739588,86.8310547 C41.0356776,86.8310547 40.5434901,86.4550781 40.5434901,85.8603516 C40.5434901,85.2861328 41.0151697,84.9169922 41.8354822,84.8623047 L43.5102869,84.7597656 L43.5102869,85.3134766 C43.5102869,86.1884766 42.737826,86.8310547 41.7739588,86.8310547 Z M51.125066,88 L53.6748707,80.7539062 L51.897527,80.7539062 L50.2158864,86.4208984 L50.1817067,86.4208984 L48.500066,80.7539062 L46.6817067,80.7539062 L49.2520192,88 L51.125066,88 Z M58.1929702,88.1435547 C59.9087905,88.1435547 61.1802748,87.2001953 61.3990248,85.8330078 L59.8062514,85.8330078 C59.6216811,86.4345703 59.0201186,86.8310547 58.2271498,86.8310547 C57.112892,86.8310547 56.4019545,86.0517578 56.4019545,84.8896484 L56.4019545,84.7871094 L61.4673842,84.7871094 L61.4673842,84.2333984 C61.4673842,82.0322266 60.182228,80.6035156 58.1246108,80.6035156 C56.0328139,80.6035156 54.706642,82.1142578 54.706642,84.4042969 C54.706642,86.7148438 56.019142,88.1435547 58.1929702,88.1435547 Z M59.7994155,83.6660156 L56.4156264,83.6660156 C56.4839858,82.6542969 57.1744155,81.9228516 58.1314467,81.9228516 C59.1089858,81.9228516 59.7652358,82.640625 59.7994155,83.6660156 Z M70.6539737,88 C73.6070987,88 75.3434268,86.1679688 75.3434268,83.0439453 C75.3434268,79.9199219 73.6002628,78.1357422 70.6539737,78.1357422 L67.0514346,78.1357422 L67.0514346,88 L70.6539737,88 Z M70.4694034,86.5097656 L68.8151065,86.5097656 L68.8151065,79.6259766 L70.4694034,79.6259766 C72.4381534,79.6259766 73.5455753,80.8427734 73.5455753,83.0507812 C73.5455753,85.2998047 72.4518253,86.5097656 70.4694034,86.5097656 Z M80.5177762,88.1435547 C82.2335966,88.1435547 83.5050809,87.2001953 83.7238309,85.8330078 L82.1310575,85.8330078 C81.9464872,86.4345703 81.3449247,86.8310547 80.5519559,86.8310547 C79.4376981,86.8310547 78.7267606,86.0517578 78.7267606,84.8896484 L78.7267606,84.7871094 L83.7921903,84.7871094 L83.7921903,84.2333984 C83.7921903,82.0322266 82.5070341,80.6035156 80.4494169,80.6035156 C78.35762,80.6035156 77.0314481,82.1142578 77.0314481,84.4042969 C77.0314481,86.7148438 78.3439481,88.1435547 80.5177762,88.1435547 Z M82.1242216,83.6660156 L78.7404325,83.6660156 C78.8087919,82.6542969 79.4992216,81.9228516 80.4562528,81.9228516 C81.4337919,81.9228516 82.0900419,82.640625 82.1242216,83.6660156 Z M87.3464225,88 L87.3464225,83.5634766 C87.3464225,82.6884766 87.9206413,82.0527344 88.7409538,82.0527344 C89.5339225,82.0527344 90.02611,82.5517578 90.02611,83.3583984 L90.02611,88 L91.6804069,88 L91.6804069,83.5224609 C91.6804069,82.6542969 92.2409538,82.0527344 93.0612663,82.0527344 C93.8952507,82.0527344 94.3600944,82.5585938 94.3600944,83.4472656 L94.3600944,88 L96.0622429,88 L96.0622429,83.0302734 C96.0622429,81.5810547 95.1257194,80.6171875 93.6970085,80.6171875 C92.65111,80.6171875 91.7897819,81.1777344 91.4411491,82.0732422 L91.4001335,82.0732422 C91.1335319,81.1435547 90.4020866,80.6171875 89.376696,80.6171875 C88.392321,80.6171875 87.626696,81.1708984 87.3122429,82.0117188 L87.2780632,82.0117188 L87.2780632,80.7539062 L85.6442741,80.7539062 L85.6442741,88 L87.3464225,88 Z M100.313741,88.1162109 C101.243428,88.1162109 102.152608,87.6308594 102.5696,86.8447266 L102.60378,86.8447266 L102.60378,88 L104.244405,88 L104.244405,83.0097656 C104.244405,81.5537109 103.075459,80.6035156 101.277608,80.6035156 C99.4319048,80.6035156 98.2766313,81.5742188 98.201436,82.9277344 L99.7805376,82.9277344 C99.8899126,82.3261719 100.402608,81.9365234 101.209249,81.9365234 C102.050069,81.9365234 102.562764,82.3740234 102.562764,83.1328125 L102.562764,83.6523438 L100.648702,83.7617188 C98.8850298,83.8710938 97.8938188,84.6435547 97.8938188,85.9287109 C97.8938188,87.234375 98.9123735,88.1162109 100.313741,88.1162109 Z M100.826436,86.8310547 C100.088155,86.8310547 99.5959673,86.4550781 99.5959673,85.8603516 C99.5959673,85.2861328 100.067647,84.9169922 100.887959,84.8623047 L102.562764,84.7597656 L102.562764,85.3134766 C102.562764,86.1884766 101.790303,86.8310547 100.826436,86.8310547 Z M108.072075,88 L108.072075,83.7822266 C108.072075,82.7636719 108.653129,82.1416016 109.616996,82.1416016 C109.904106,82.1416016 110.163871,82.1826172 110.307426,82.2373047 L110.307426,80.6992188 C110.184379,80.671875 109.992973,80.6308594 109.774223,80.6308594 C108.919731,80.6308594 108.283989,81.1367188 108.037895,82.0185547 L108.003715,82.0185547 L108.003715,80.7539062 L106.369926,80.7539062 L106.369926,88 L108.072075,88 Z M114.852869,88.1435547 C116.671229,88.1435547 117.922205,87.0771484 118.058924,85.4570312 L116.452479,85.4570312 C116.295252,86.2773438 115.734705,86.7695312 114.873377,86.7695312 C113.793299,86.7695312 113.096033,85.8945312 113.096033,84.3769531 C113.096033,82.8867188 113.786463,81.984375 114.859705,81.984375 C115.768885,81.984375 116.308924,82.5654297 116.445643,83.3378906 L118.052088,83.3378906 C117.935877,81.8134766 116.75326,80.6035156 114.839197,80.6035156 C112.733729,80.6035156 111.366541,82.0595703 111.366541,84.3769531 C111.366541,86.7285156 112.733729,88.1435547 114.852869,88.1435547 Z M123.035031,88.1435547 C125.161008,88.1435547 126.541867,86.7285156 126.541867,84.3769531 C126.541867,82.0322266 125.147336,80.6035156 123.035031,80.6035156 C120.922726,80.6035156 119.528195,82.0390625 119.528195,84.3769531 C119.528195,86.7285156 120.909055,88.1435547 123.035031,88.1435547 Z M123.035031,86.796875 C121.954953,86.796875 121.257687,85.921875 121.257687,84.3769531 C121.257687,82.8388672 121.961789,81.9570312 123.035031,81.9570312 C124.115109,81.9570312 124.812375,82.8388672 124.812375,84.3769531 C124.812375,85.921875 124.115109,86.796875 123.035031,86.796875 Z" id="DaveDemarco" fill="#FFFFFF" fill-rule="nonzero"></path>
                <path d="M29.2353516,102 L29.8603516,99.0800781 L32.8583984,99.0800781 L33.0585938,98.1132812 L30.0556641,98.1132812 L30.5341797,95.9501953 L33.8105469,95.9501953 L34.0107422,94.9541016 L29.6064453,94.9541016 L28.1074219,102 L29.2353516,102 Z M36.3346357,102.097656 C37.8873701,102.097656 39.0494795,100.769531 39.0494795,99.03125 C39.0494795,97.6542969 38.1754561,96.7460938 36.8326826,96.7460938 C35.2799482,96.7460938 34.1178389,98.0791016 34.1178389,99.8173828 C34.1178389,101.189453 34.9869795,102.097656 36.3346357,102.097656 Z M36.3492842,101.174805 C35.6363936,101.174805 35.1774092,100.62793 35.1774092,99.7880859 C35.1774092,98.5820312 35.8658857,97.6689453 36.8131514,97.6689453 C37.5309248,97.6689453 37.9850264,98.2207031 37.9850264,99.0605469 C37.9850264,100.261719 37.2965498,101.174805 36.3492842,101.174805 Z M41.7981778,102.097656 C42.5696621,102.097656 43.2141934,101.6875 43.4729824,101.248047 L43.4973965,101.248047 L43.3313809,102 L44.3323574,102 L45.4261074,96.8486328 L44.3763028,96.8486328 L43.7268887,99.9003906 C43.5657559,100.637695 43.0042324,101.150391 42.2620449,101.150391 C41.6175137,101.150391 41.3001309,100.867188 41.3001309,100.266602 C41.3001309,100.154297 41.3245449,99.9248047 41.3587246,99.7636719 L41.9837246,96.8486328 L40.9290371,96.8486328 L40.2845059,99.9296875 C40.2405606,100.139648 40.2112637,100.4375 40.2112637,100.642578 C40.2112637,101.472656 40.8167324,102.097656 41.7981778,102.097656 Z M46.9638682,102 L47.6181651,98.9238281 C47.7841807,98.1621094 48.3505869,97.6787109 49.0390635,97.6787109 C49.6445322,97.6787109 50.0498057,98.0253906 50.0498057,98.5820312 C50.0498057,98.7041016 50.0351572,98.875 49.9912119,99.0605469 L49.3710947,102 L50.4160166,102 L51.0751963,98.8798828 C51.1191416,98.6552734 51.1435557,98.4306641 51.1435557,98.25 C51.1435557,97.3710938 50.4501963,96.7460938 49.5322276,96.7460938 C48.7949229,96.7460938 48.2089854,97.0878906 47.8623057,97.6445312 L47.8427744,97.6445312 L48.0087901,96.8486328 L47.0078135,96.8486328 L45.9189463,102 L46.9638682,102 Z M54.1656914,102.087891 C54.8395196,102.087891 55.4596368,101.72168 55.7819024,101.204102 L55.8063164,101.204102 L55.635418,102 L56.6754571,102 L58.1793633,94.9541016 L57.1295586,94.9541016 L56.5045586,97.8496094 L56.4752618,97.8496094 C56.3141289,97.2294922 55.6695977,96.7607422 54.8639336,96.7607422 C53.4088555,96.7607422 52.2955743,98.1132812 52.2955743,99.9296875 C52.2955743,101.238281 53.0133477,102.087891 54.1656914,102.087891 Z M54.4977227,101.165039 C53.7799493,101.165039 53.3502618,100.652344 53.3502618,99.8222656 C53.3502618,98.5869141 54.0485039,97.6982422 54.9567071,97.6982422 C55.6940118,97.6982422 56.1627618,98.2353516 56.1627618,98.9970703 C56.1627618,100.222656 55.4498711,101.165039 54.4977227,101.165039 Z M60.7815772,102.107422 C61.9339209,102.107422 62.8470069,101.375 63.1155616,100.388672 L62.1048194,100.388672 C61.8997413,100.886719 61.4456397,101.208984 60.8108741,101.208984 C60.0882178,101.208984 59.6292334,100.681641 59.6292334,99.8466797 C59.6292334,99.7929688 59.6292334,99.734375 59.6389991,99.6757812 L63.2913428,99.6757812 C63.3352881,99.4414062 63.3450538,99.1630859 63.3450538,98.9335938 C63.3450538,97.5908203 62.5198584,96.7460938 61.2259131,96.7460938 C59.6829444,96.7460938 58.6136084,98.1035156 58.6136084,99.8125 C58.6136084,101.165039 59.3753272,102.107422 60.7815772,102.107422 Z M62.3147803,98.9091797 L59.7561866,98.9091797 C59.9466163,98.1816406 60.4593116,97.6347656 61.2014991,97.6347656 C61.9827491,97.6347656 62.3245459,98.1767578 62.3245459,98.7675781 C62.3245459,98.8115234 62.3196631,98.8701172 62.3147803,98.9091797 Z M65.2099629,102 L65.8251973,99.0996094 C66.015627,98.2353516 66.4550801,97.78125 67.2705098,97.78125 C67.5244161,97.78125 67.8027364,97.8447266 67.9394551,97.9082031 L68.1542989,96.8925781 C68.0224629,96.8291016 67.7978536,96.7705078 67.5390645,96.7705078 C66.9091817,96.7705078 66.4404317,97.078125 66.1376973,97.546875 L66.1132832,97.546875 L66.2548848,96.8486328 L65.2539082,96.8486328 L64.1650411,102 L65.2099629,102 Z M73.7005235,102.131836 C74.4768907,102.131836 75.2044298,101.931641 75.7561876,101.575195 L76.0442735,102 L77.2405626,102 L76.5374376,100.930664 C77.1184923,100.310547 77.5140001,99.5146484 77.5970079,98.5283203 L77.6165391,98.2792969 L76.6643907,98.2792969 L76.6448594,98.4990234 C76.5911485,99.1777344 76.3714219,99.7148438 76.0198594,100.134766 L74.7259141,98.2939453 C76.0491563,97.8300781 76.6253282,97.078125 76.6253282,96.2578125 C76.6253282,95.4277344 75.8684923,94.8125 74.8382188,94.8125 C73.6956407,94.8125 72.8313829,95.5839844 72.8313829,96.5458984 C72.8313829,96.9609375 73.0022813,97.390625 73.3977891,97.9619141 L73.0804063,98.09375 C71.8743516,98.5625 71.2786485,99.2705078 71.2786485,100.183594 C71.2786485,101.291992 72.3479844,102.131836 73.7005235,102.131836 Z M74.2962266,97.6542969 C73.9544298,97.2001953 73.8128282,96.8974609 73.8128282,96.609375 C73.8128282,96.0722656 74.2669298,95.6376953 74.8186876,95.6376953 C75.3069688,95.6376953 75.6536485,95.9160156 75.6536485,96.3554688 C75.6536485,96.84375 75.2630235,97.3515625 74.2962266,97.6542969 Z M73.7688829,101.25293 C72.8753282,101.25293 72.3186876,100.759766 72.3186876,100.095703 C72.3186876,99.5341797 72.7532579,99.0556641 73.5686876,98.7626953 C73.5735704,98.7578125 73.8128282,98.6748047 73.8274766,98.6699219 L75.2923204,100.833008 C74.8382188,101.140625 74.2522813,101.25293 73.7688829,101.25293 Z M84.9645216,102.112305 C86.4586622,102.112305 87.6598341,101.199219 88.0211622,99.7929688 L86.932295,99.7929688 C86.6246778,100.608398 85.8971387,101.09668 84.9987012,101.09668 C83.8561231,101.09668 83.1529981,100.310547 83.1529981,99.0263672 C83.1529981,97.1855469 84.1881544,95.8525391 85.6871778,95.8525391 C86.6100294,95.8525391 87.3033887,96.3798828 87.3863966,97.2246094 C87.3912794,97.2880859 87.3912794,97.3320312 87.3912794,97.3613281 L88.4850294,97.3613281 L88.4850294,97.1855469 L88.4850294,97.1855469 C88.4069044,95.7646484 87.2887403,94.8417969 85.7311231,94.8417969 C83.5582716,94.8417969 82.0299512,96.6289062 82.0299512,99.0800781 C82.0299512,100.930664 83.1725294,102.112305 84.9645216,102.112305 Z M93.5335323,102 L93.7337276,101.003906 L90.364587,101.003906 L90.8284542,98.8896484 L94.0169307,98.8896484 L94.2073604,97.9423828 L91.0237667,97.9423828 L91.4632198,95.9501953 L94.8274776,95.9501953 L95.0325557,94.9541016 L90.5501339,94.9541016 L89.0511104,102 L93.5335323,102 Z M98.5722696,102.112305 C100.706059,102.112305 102.283207,100.266602 102.283207,97.8935547 C102.283207,96.0722656 101.121098,94.8417969 99.2998087,94.8417969 C97.1660196,94.8417969 95.5888712,96.6875 95.5888712,99.0605469 C95.5888712,100.881836 96.7607462,102.112305 98.5722696,102.112305 Z M98.5820352,101.106445 C97.4394571,101.106445 96.7070352,100.286133 96.7070352,99.0068359 C96.7070352,97.2636719 97.7763712,95.8476562 99.2900431,95.8476562 C100.432621,95.8476562 101.165043,96.6630859 101.165043,97.9423828 C101.165043,99.6904297 100.095707,101.106445 98.5820352,101.106445 Z" id="Founder&amp;CEO" fill="#EDEDED" fill-rule="nonzero"></path>
                <path d="M31.4794877,136.709961 L31.4794877,134.855469 L33.2460893,134.855469 L33.2460893,134.143555 L31.4794877,134.143555 L31.4794877,132.289062 L30.7675736,132.289062 L30.7675736,134.143555 L29.0009721,134.143555 L29.0009721,134.855469 L30.7675736,134.855469 L30.7675736,136.709961 L31.4794877,136.709961 Z M36.96357,137 L36.96357,130.658691 L36.1901325,130.658691 L34.5026325,131.871582 L34.5026325,132.666992 L36.1813435,131.498047 L36.1989216,131.498047 L36.1989216,137 L36.96357,137 Z M43.409762,137.105469 C44.9610316,137.105469 45.866305,135.857422 45.866305,133.72168 C45.866305,131.317871 44.5918909,130.548828 43.4581019,130.548828 C42.1573206,130.548828 41.2124964,131.462891 41.2124964,132.715332 C41.2124964,133.919434 42.1089808,134.811523 43.3174769,134.811523 C44.1260706,134.811523 44.8204066,134.402832 45.088473,133.774414 L45.1016566,133.774414 C45.0796839,135.45752 44.4952112,136.415527 43.4185511,136.415527 C42.7593714,136.415527 42.2627894,136.112305 42.0870081,135.527832 L41.2828089,135.527832 C41.4673792,136.481445 42.3155237,137.105469 43.409762,137.105469 Z M43.4537073,134.117188 C42.6231409,134.117188 42.0123011,133.515137 42.0123011,132.688965 C42.0123011,131.893555 42.6539027,131.260742 43.4668909,131.260742 C44.2842737,131.260742 44.9170862,131.897949 44.9170862,132.710938 C44.9170862,133.519531 44.2930628,134.117188 43.4537073,134.117188 Z M49.2849576,137.105469 C50.8362272,137.105469 51.7415006,135.857422 51.7415006,133.72168 C51.7415006,131.317871 50.4670865,130.548828 49.3332975,130.548828 C48.0325162,130.548828 47.087692,131.462891 47.087692,132.715332 C47.087692,133.919434 47.9841764,134.811523 49.1926725,134.811523 C50.0012662,134.811523 50.6956022,134.402832 50.9636686,133.774414 L50.9768522,133.774414 C50.9548795,135.45752 50.3704069,136.415527 49.2937467,136.415527 C48.634567,136.415527 48.137985,136.112305 47.9622037,135.527832 L47.1580045,135.527832 C47.3425748,136.481445 48.1907194,137.105469 49.2849576,137.105469 Z M49.328903,134.117188 C48.4983365,134.117188 47.8874967,133.515137 47.8874967,132.688965 C47.8874967,131.893555 48.5290983,131.260742 49.3420865,131.260742 C50.1594694,131.260742 50.7922819,131.897949 50.7922819,132.710938 C50.7922819,133.519531 50.1682584,134.117188 49.328903,134.117188 Z M55.1601533,137.105469 C56.7114228,137.105469 57.6166962,135.857422 57.6166962,133.72168 C57.6166962,131.317871 56.3422822,130.548828 55.2084931,130.548828 C53.9077118,130.548828 52.9628876,131.462891 52.9628876,132.715332 C52.9628876,133.919434 53.859372,134.811523 55.0678681,134.811523 C55.8764618,134.811523 56.5707978,134.402832 56.8388642,133.774414 L56.8520478,133.774414 C56.8300751,135.45752 56.2456025,136.415527 55.1689423,136.415527 C54.5097626,136.415527 54.0131806,136.112305 53.8373993,135.527832 L53.0332001,135.527832 C53.2177704,136.481445 54.065915,137.105469 55.1601533,137.105469 Z M55.2040986,134.117188 C54.3735322,134.117188 53.7626923,133.515137 53.7626923,132.688965 C53.7626923,131.893555 54.4042939,131.260742 55.2172822,131.260742 C56.034665,131.260742 56.6674775,131.897949 56.6674775,132.710938 C56.6674775,133.519531 56.043454,134.117188 55.2040986,134.117188 Z M59.4708957,137.043945 C59.7521457,137.043945 59.9718723,136.824219 59.9718723,136.542969 C59.9718723,136.261719 59.7521457,136.041992 59.4708957,136.041992 C59.1896457,136.041992 58.9699192,136.261719 58.9699192,136.542969 C58.9699192,136.824219 59.1896457,137.043945 59.4708957,137.043945 Z M63.7201148,137.105469 C65.2713843,137.105469 66.1766578,135.857422 66.1766578,133.72168 C66.1766578,131.317871 64.9022437,130.548828 63.7684546,130.548828 C62.4676734,130.548828 61.5228492,131.462891 61.5228492,132.715332 C61.5228492,133.919434 62.4193335,134.811523 63.6278296,134.811523 C64.4364234,134.811523 65.1307593,134.402832 65.3988257,133.774414 L65.4120093,133.774414 C65.3900367,135.45752 64.805564,136.415527 63.7289039,136.415527 C63.0697242,136.415527 62.5731421,136.112305 62.3973609,135.527832 L61.5931617,135.527832 C61.777732,136.481445 62.6258765,137.105469 63.7201148,137.105469 Z M63.7640601,134.117188 C62.9334937,134.117188 62.3226539,133.515137 62.3226539,132.688965 C62.3226539,131.893555 62.9642554,131.260742 63.7772437,131.260742 C64.5946265,131.260742 65.227439,131.897949 65.227439,132.710938 C65.227439,133.519531 64.6034156,134.117188 63.7640601,134.117188 Z M69.5953104,137.105469 C71.1465799,137.105469 72.0518534,135.857422 72.0518534,133.72168 C72.0518534,131.317871 70.7774393,130.548828 69.6436502,130.548828 C68.342869,130.548828 67.3980448,131.462891 67.3980448,132.715332 C67.3980448,133.919434 68.2945292,134.811523 69.5030252,134.811523 C70.311619,134.811523 71.0059549,134.402832 71.2740213,133.774414 L71.2872049,133.774414 C71.2652323,135.45752 70.6807596,136.415527 69.6040995,136.415527 C68.9449198,136.415527 68.4483377,136.112305 68.2725565,135.527832 L67.4683573,135.527832 C67.6529276,136.481445 68.5010721,137.105469 69.5953104,137.105469 Z M69.6392557,134.117188 C68.8086893,134.117188 68.1978495,133.515137 68.1978495,132.688965 C68.1978495,131.893555 68.839451,131.260742 69.6524393,131.260742 C70.4698221,131.260742 71.1026346,131.897949 71.1026346,132.710938 C71.1026346,133.519531 70.4786112,134.117188 69.6392557,134.117188 Z M75.470506,137.105469 C77.0217755,137.105469 77.927049,135.857422 77.927049,133.72168 C77.927049,131.317871 76.6526349,130.548828 75.5188459,130.548828 C74.2180646,130.548828 73.2732404,131.462891 73.2732404,132.715332 C73.2732404,133.919434 74.1697248,134.811523 75.3782209,134.811523 C76.1868146,134.811523 76.8811505,134.402832 77.149217,133.774414 L77.1624005,133.774414 C77.1404279,135.45752 76.5559552,136.415527 75.4792951,136.415527 C74.8201154,136.415527 74.3235334,136.112305 74.1477521,135.527832 L73.3435529,135.527832 C73.5281232,136.481445 74.3762677,137.105469 75.470506,137.105469 Z M75.5144513,134.117188 C74.6838849,134.117188 74.0730451,133.515137 74.0730451,132.688965 C74.0730451,131.893555 74.7146466,131.260742 75.5276349,131.260742 C76.3450177,131.260742 76.9778302,131.897949 76.9778302,132.710938 C76.9778302,133.519531 76.3538068,134.117188 75.5144513,134.117188 Z M79.7812485,137.043945 C80.0624985,137.043945 80.2822251,136.824219 80.2822251,136.542969 C80.2822251,136.261719 80.0624985,136.041992 79.7812485,136.041992 C79.4999985,136.041992 79.2802719,136.261719 79.2802719,136.542969 C79.2802719,136.824219 79.4999985,137.043945 79.7812485,137.043945 Z M84.0304676,137.105469 C85.5817371,137.105469 86.4870105,135.857422 86.4870105,133.72168 C86.4870105,131.317871 85.2125965,130.548828 84.0788074,130.548828 C82.7780261,130.548828 81.8332019,131.462891 81.8332019,132.715332 C81.8332019,133.919434 82.7296863,134.811523 83.9381824,134.811523 C84.7467761,134.811523 85.4411121,134.402832 85.7091785,133.774414 L85.7223621,133.774414 C85.7003894,135.45752 85.1159168,136.415527 84.0392566,136.415527 C83.3800769,136.415527 82.8834949,136.112305 82.7077136,135.527832 L81.9035144,135.527832 C82.0880847,136.481445 82.9362293,137.105469 84.0304676,137.105469 Z M84.0744129,134.117188 C83.2438465,134.117188 82.6330066,133.515137 82.6330066,132.688965 C82.6330066,131.893555 83.2746082,131.260742 84.0875965,131.260742 C84.9049793,131.260742 85.5377918,131.897949 85.5377918,132.710938 C85.5377918,133.519531 84.9137683,134.117188 84.0744129,134.117188 Z M89.9056632,137.105469 C91.4569327,137.105469 92.3622061,135.857422 92.3622061,133.72168 C92.3622061,131.317871 91.0877921,130.548828 89.954003,130.548828 C88.6532218,130.548828 87.7083975,131.462891 87.7083975,132.715332 C87.7083975,133.919434 88.6048819,134.811523 89.813378,134.811523 C90.6219718,134.811523 91.3163077,134.402832 91.5843741,133.774414 L91.5975577,133.774414 C91.575585,135.45752 90.9911124,136.415527 89.9144522,136.415527 C89.2552725,136.415527 88.7586905,136.112305 88.5829093,135.527832 L87.77871,135.527832 C87.9632804,136.481445 88.8114249,137.105469 89.9056632,137.105469 Z M89.9496085,134.117188 C89.1190421,134.117188 88.5082022,133.515137 88.5082022,132.688965 C88.5082022,131.893555 89.1498038,131.260742 89.9627921,131.260742 C90.7801749,131.260742 91.4129874,131.897949 91.4129874,132.710938 C91.4129874,133.519531 90.7889639,134.117188 89.9496085,134.117188 Z M95.7808588,137.105469 C97.3321283,137.105469 98.2374017,135.857422 98.2374017,133.72168 C98.2374017,131.317871 96.9629877,130.548828 95.8291986,130.548828 C94.5284174,130.548828 93.5835932,131.462891 93.5835932,132.715332 C93.5835932,133.919434 94.4800775,134.811523 95.6885736,134.811523 C96.4971674,134.811523 97.1915033,134.402832 97.4595697,133.774414 L97.4727533,133.774414 C97.4507807,135.45752 96.866308,136.415527 95.7896478,136.415527 C95.1304682,136.415527 94.6338861,136.112305 94.4581049,135.527832 L93.6539057,135.527832 C93.838476,136.481445 94.6866205,137.105469 95.7808588,137.105469 Z M95.8248041,134.117188 C94.9942377,134.117188 94.3833978,133.515137 94.3833978,132.688965 C94.3833978,131.893555 95.0249994,131.260742 95.8379877,131.260742 C96.6553705,131.260742 97.288183,131.897949 97.288183,132.710938 C97.288183,133.519531 96.6641596,134.117188 95.8248041,134.117188 Z M101.656054,137.105469 C103.207324,137.105469 104.112597,135.857422 104.112597,133.72168 C104.112597,131.317871 102.838183,130.548828 101.704394,130.548828 C100.403613,130.548828 99.4587888,131.462891 99.4587888,132.715332 C99.4587888,133.919434 100.355273,134.811523 101.563769,134.811523 C102.372363,134.811523 103.066699,134.402832 103.334765,133.774414 L103.347949,133.774414 C103.325976,135.45752 102.741504,136.415527 101.664843,136.415527 C101.005664,136.415527 100.509082,136.112305 100.3333,135.527832 L99.5291013,135.527832 C99.7136716,136.481445 100.561816,137.105469 101.656054,137.105469 Z M101.7,134.117188 C100.869433,134.117188 100.258593,133.515137 100.258593,132.688965 C100.258593,131.893555 100.900195,131.260742 101.713183,131.260742 C102.530566,131.260742 103.163379,131.897949 103.163379,132.710938 C103.163379,133.519531 102.539355,134.117188 101.7,134.117188 Z" id="+1999.999.9999" fill="#EDEDED" fill-rule="nonzero"></path>
                <path d="M29.8930619,123.079102 C30.5522416,123.079102 31.0751908,122.753906 31.3696244,122.226562 L31.382808,122.226562 L31.382808,123 L32.1123002,123 L32.1123002,116.658691 L31.3476518,116.658691 L31.3476518,119.172363 L31.3300736,119.172363 C31.0576127,118.671387 30.5302689,118.350586 29.8754838,118.350586 C28.7241166,118.350586 27.9374955,119.282227 27.9374955,120.714844 C27.9374955,122.147461 28.7285111,123.079102 29.8930619,123.079102 Z M30.0380814,122.406738 C29.2294877,122.406738 28.7197221,121.751953 28.7197221,120.714844 C28.7197221,119.682129 29.2294877,119.022949 30.0380814,119.022949 C30.8247025,119.022949 31.3520463,119.695312 31.3520463,120.714844 C31.3520463,121.73877 30.8247025,122.406738 30.0380814,122.406738 Z M34.9684528,123.079102 C35.5836872,123.079102 36.1637653,122.736328 36.4362263,122.213379 L36.4538044,122.213379 L36.4538044,123 L37.1789021,123 L37.1789021,119.840332 C37.1789021,118.930664 36.5021442,118.350586 35.4298786,118.350586 C34.3488239,118.350586 33.6720661,118.957031 33.6193317,119.748047 L34.357613,119.748047 C34.4542927,119.299805 34.8234333,119.022949 35.4123005,119.022949 C36.045113,119.022949 36.4142536,119.356934 36.4142536,119.915039 L36.4142536,120.297363 L35.1046833,120.37207 C34.0499958,120.433594 33.447945,120.925781 33.447945,121.708008 C33.447945,122.529785 34.0587849,123.079102 34.9684528,123.079102 Z M35.1398396,122.428711 C34.5905231,122.428711 34.2257771,122.143066 34.2257771,121.708008 C34.2257771,121.277344 34.5773396,121.004883 35.1925739,120.965332 L36.4142536,120.890625 L36.4142536,121.26416 C36.4142536,121.92334 35.8605427,122.428711 35.1398396,122.428711 Z M40.707418,123 L42.3861289,118.429688 L41.5907188,118.429688 L40.3250938,122.187012 L40.3075156,122.187012 L39.0462852,118.429688 L38.2420859,118.429688 L39.9251914,123 L40.707418,123 Z M45.2203089,123.079102 C46.2178675,123.079102 46.991305,122.490234 47.1231409,121.69043 L46.3716761,121.69043 C46.2442347,122.121094 45.8179652,122.415527 45.237887,122.415527 C44.4161097,122.415527 43.9019495,121.839844 43.9019495,120.965332 L43.9019495,120.921387 L47.1802698,120.921387 L47.1802698,120.631348 C47.1802698,119.24707 46.4200159,118.350586 45.1851527,118.350586 C43.9239222,118.350586 43.1153284,119.312988 43.1153284,120.732422 C43.1153284,122.169434 43.9107386,123.079102 45.2203089,123.079102 Z M46.3892542,120.32373 L43.9063441,120.32373 C43.9546839,119.563477 44.4556605,119.01416 45.1719691,119.01416 C45.8926722,119.01416 46.3716761,119.559082 46.3892542,120.32373 Z M52.075485,124.02832 C52.6423795,124.02832 53.1697233,123.949219 53.556442,123.812988 L53.556442,123.259277 C53.2707975,123.386719 52.6731412,123.470215 52.084274,123.470215 C50.3176725,123.470215 48.990524,122.375977 48.990524,120.385254 C48.990524,118.54834 50.2341764,117.247559 51.943649,117.247559 C53.6926725,117.247559 54.9055631,118.324219 54.9055631,119.919434 C54.9055631,121.057617 54.5188444,121.699219 53.9958951,121.699219 C53.6575162,121.699219 53.4993131,121.49707 53.4993131,121.211426 L53.4993131,118.631836 L52.8357389,118.631836 L52.8357389,119.167969 L52.8005826,119.167969 C52.6335905,118.794434 52.2073209,118.54834 51.7371061,118.54834 C50.8362272,118.54834 50.2078092,119.29541 50.2078092,120.363281 C50.2078092,121.479492 50.8230436,122.230957 51.7371061,122.230957 C52.2556608,122.230957 52.6643522,121.976074 52.853317,121.532227 L52.8884733,121.532227 C52.9412076,121.97168 53.3718717,122.270508 53.8728483,122.270508 C54.9011686,122.270508 55.525192,121.334473 55.525192,119.928223 C55.525192,117.990234 54.044235,116.693848 52.000778,116.693848 C49.8650358,116.693848 48.3708951,118.166016 48.3708951,120.358887 C48.3708951,122.723145 49.9309537,124.02832 52.075485,124.02832 Z M51.8381803,121.611328 C51.2624967,121.611328 50.9109342,121.145508 50.9109342,120.380859 C50.9109342,119.611816 51.2581022,119.154785 51.8469694,119.154785 C52.4446256,119.154785 52.8269498,119.629395 52.8269498,120.380859 C52.8269498,121.132324 52.4402311,121.611328 51.8381803,121.611328 Z M58.6801728,124.722656 C59.9414033,124.722656 60.7456025,123.997559 60.7456025,122.907715 L60.7456025,118.429688 L60.0161103,118.429688 L60.0161103,119.19873 L60.0029267,119.19873 C59.699704,118.666992 59.1635712,118.350586 58.5175751,118.350586 C57.3354462,118.350586 56.5707978,119.264648 56.5707978,120.697266 C56.5707978,122.116699 57.3354462,123.035156 58.499997,123.035156 C59.1415986,123.035156 59.6821259,122.709961 59.9633759,122.213379 L59.980954,122.213379 L59.980954,122.934082 C59.980954,123.615234 59.5019501,124.072266 58.7109345,124.072266 C58.1396454,124.072266 57.6870087,123.79541 57.5375947,123.37793 L56.7509736,123.37793 C56.878415,124.155762 57.6738251,124.722656 58.6801728,124.722656 Z M58.6538056,122.362793 C57.8671845,122.362793 57.3530243,121.721191 57.3530243,120.697266 C57.3530243,119.67334 57.8671845,119.022949 58.6538056,119.022949 C59.4492158,119.022949 59.980954,119.690918 59.980954,120.697266 C59.980954,121.703613 59.4492158,122.362793 58.6538056,122.362793 Z M63.0304661,123 L63.0304661,116.658691 L62.2658176,116.658691 L62.2658176,123 L63.0304661,123 Z M66.4447242,123.079102 C67.7059546,123.079102 68.5584937,122.169434 68.5584937,120.714844 C68.5584937,119.255859 67.7059546,118.350586 66.4447242,118.350586 C65.1790992,118.350586 64.3265601,119.255859 64.3265601,120.714844 C64.3265601,122.169434 65.1790992,123.079102 66.4447242,123.079102 Z M66.4447242,122.406738 C65.6361304,122.406738 65.1043921,121.791504 65.1043921,120.714844 C65.1043921,119.638184 65.6361304,119.022949 66.4447242,119.022949 C67.2533179,119.022949 67.7806617,119.638184 67.7806617,120.714844 C67.7806617,121.791504 67.2533179,122.406738 66.4447242,122.406738 Z M72.0870096,123.079102 C73.2559549,123.079102 74.0293924,122.151855 74.0293924,120.714844 C74.0293924,119.282227 73.2515604,118.350586 72.1001932,118.350586 C71.4541971,118.350586 70.9224588,118.671387 70.6368143,119.194336 L70.6192362,119.194336 L70.6192362,116.658691 L69.8545877,116.658691 L69.8545877,123 L70.5840799,123 L70.5840799,122.226562 L70.6016581,122.226562 C70.8960917,122.753906 71.4190409,123.079102 72.0870096,123.079102 Z M71.9375956,122.406738 C71.1641581,122.406738 70.6148417,121.734375 70.6148417,120.714844 C70.6148417,119.699707 71.1641581,119.022949 71.9375956,119.022949 C72.7461893,119.022949 73.2471659,119.677734 73.2471659,120.714844 C73.2471659,121.760742 72.7461893,122.406738 71.9375956,122.406738 Z M77.1711896,123.079102 C78.1687482,123.079102 78.9421857,122.490234 79.0740216,121.69043 L78.3225568,121.69043 C78.1951154,122.121094 77.7688459,122.415527 77.1887677,122.415527 C76.3669904,122.415527 75.8528302,121.839844 75.8528302,120.965332 L75.8528302,120.921387 L79.1311505,120.921387 L79.1311505,120.631348 C79.1311505,119.24707 78.3708966,118.350586 77.1360334,118.350586 C75.8748029,118.350586 75.0662091,119.312988 75.0662091,120.732422 C75.0662091,122.169434 75.8616193,123.079102 77.1711896,123.079102 Z M78.3401349,120.32373 L75.8572248,120.32373 C75.9055646,119.563477 76.4065412,119.01416 77.1228498,119.01416 C77.8435529,119.01416 78.3225568,119.559082 78.3401349,120.32373 Z M80.7963852,123 L81.8994126,121.259766 L81.9169907,121.259766 L83.011229,123 L83.8593735,123 L82.3388657,120.684082 L83.8813462,118.429688 L83.0288071,118.429688 L81.9433579,120.143555 L81.9257798,120.143555 L80.8271469,118.429688 L79.9746079,118.429688 L81.5039048,120.714844 L79.9482407,123 L80.7963852,123 Z M85.6564441,123.043945 C85.9376941,123.043945 86.1574207,122.824219 86.1574207,122.542969 C86.1574207,122.261719 85.9376941,122.041992 85.6564441,122.041992 C85.3751941,122.041992 85.1554676,122.261719 85.1554676,122.542969 C85.1554676,122.824219 85.3751941,123.043945 85.6564441,123.043945 Z M89.4046866,123.079102 C90.441796,123.079102 91.2064444,122.4375 91.3250968,121.527832 L90.5736319,121.527832 C90.441796,122.077148 90.0331046,122.406738 89.4090811,122.406738 C88.6180655,122.406738 88.0731436,121.77832 88.0731436,120.714844 C88.0731436,119.677734 88.6092764,119.022949 89.4002921,119.022949 C90.0726554,119.022949 90.4593741,119.431641 90.5692374,119.928223 L91.3163077,119.928223 C91.219628,119.106445 90.5384757,118.350586 89.3958975,118.350586 C88.1346671,118.350586 87.2953116,119.273438 87.2953116,120.714844 C87.2953116,122.187012 88.1390616,123.079102 89.4046866,123.079102 Z M94.409765,123.079102 C95.6709955,123.079102 96.5235346,122.169434 96.5235346,120.714844 C96.5235346,119.255859 95.6709955,118.350586 94.409765,118.350586 C93.14414,118.350586 92.291601,119.255859 92.291601,120.714844 C92.291601,122.169434 93.14414,123.079102 94.409765,123.079102 Z M94.409765,122.406738 C93.6011713,122.406738 93.069433,121.791504 93.069433,120.714844 C93.069433,119.638184 93.6011713,119.022949 94.409765,119.022949 C95.2183588,119.022949 95.7457025,119.638184 95.7457025,120.714844 C95.7457025,121.791504 95.2183588,122.406738 94.409765,122.406738 Z M98.5447263,123 L98.5447263,120.134766 C98.5447263,119.501953 98.9841794,119.027344 99.5906247,119.027344 C100.157519,119.027344 100.52666,119.387695 100.52666,119.937012 L100.52666,123 L101.291308,123 L101.291308,120.095215 C101.291308,119.475586 101.717578,119.027344 102.324023,119.027344 C102.926074,119.027344 103.273242,119.396484 103.273242,120.020508 L103.273242,123 L104.03789,123 L104.03789,119.844727 C104.03789,118.939453 103.453418,118.350586 102.548144,118.350586 C101.906543,118.350586 101.37041,118.675781 101.115527,119.220703 L101.097949,119.220703 C100.900195,118.666992 100.438769,118.350586 99.8147458,118.350586 C99.1995114,118.350586 98.7336911,118.675781 98.5183591,119.15918 L98.500781,119.15918 L98.500781,118.429688 L97.7800778,118.429688 L97.7800778,123 L98.5447263,123 Z" id="dave@globex.com" fill="#EDEDED" fill-rule="nonzero"></path>
                <g id="sphere-copy-4" transform="translate(26.000000, 30.000000)" fill="#FFFFFF" fill-rule="nonzero">
                    <path d="M10.08855,15.91145 C11.1168,15.96905 12.16425,16 13.2,16 C19.36425,16 26,14.9984 26,12.8 C26,5.74185 20.25815,0 13.2,0 C11.00055,0 10,6.63465 10,12.8 C10,13.83575 10.03095,14.8832 10.08855,15.91145 Z" id="Path"></path>
                    <path d="M8.8129086,16 C8.75394466,14.8229697 8.73536487,13.7440253 8.73536487,12.8939479 C8.73536487,9.56449496 9.00397839,2.80310988 11,0 C4.77280363,1.01028433 0,6.39846741 0,12.8939479 C0,14.6289947 4.05760989,15.6316161 8.8129086,16 Z" id="Path"></path>
                    <path d="M10,17.1871324 C10.36726,21.942409 11.3699325,26 13.1060521,26 C19.6015326,26 24.9897157,21.2261437 26,15 C23.1969412,16.9960123 16.4366289,17.2646246 13.1060521,17.2646246 C12.2559747,17.2646246 11.1770303,17.2460961 10,17.1871324 L10,17.1871324 Z" id="Path"></path>
                    <path d="M0,15 C0.915204581,20.634399 5.36560097,25.0848475 11,26 C9.64830442,24.0985257 9.07301512,20.4189128 8.84420096,17.1568923 C5.58223253,16.9281303 1.90256762,16.3527889 0,15 L0,15 Z" id="Path"></path>
                </g>
            </g>
        </g>
    </g>
</svg>