<svg xmlns="http://www.w3.org/2000/svg" viewBox="0 0 1245.32 1079.61"><defs><style>.cls-1{opacity:0.6;}.cls-2{opacity:0.2;}.cls-3{opacity:0.4;}</style></defs><g id="Layer_2" data-name="Layer 2"><g id="_02" data-name="02"><path d="M829.88,720.7H415.44a1,1,0,0,1-.87-.5,1,1,0,0,1,0-1L621.79,360.28a1,1,0,0,1,1.74,0L830.75,719.2a1,1,0,0,1,0,1A1,1,0,0,1,829.88,720.7Zm-412.71-2h411L622.66,362.78Z"/><path d="M622.66,720.7a1,1,0,0,1-1-1V360.78a1,1,0,0,1,2,0V719.7A1,1,0,0,1,622.66,720.7Z"/><path d="M415.44,720.69a1,1,0,0,1-.87-.5,1,1,0,0,1,.37-1.36L725.77,539.36a1,1,0,1,1,1,1.74L415.94,720.56A1,1,0,0,1,415.44,720.69Z"/><path d="M829.88,720.69a1,1,0,0,1-.5-.13L518.55,541.1a1,1,0,0,1,1-1.74L830.38,718.83a1,1,0,0,1,.37,1.36A1,1,0,0,1,829.88,720.69Z"/><g class="cls-1"><path d="M415.44,720.7a1,1,0,0,1-.87-.5L207.35,361.28a1,1,0,0,1,0-1,1,1,0,0,1,.87-.5H622.66a1,1,0,0,1,.87.5,1,1,0,0,1,0,1L416.31,720.2A1,1,0,0,1,415.44,720.7ZM210,361.78,415.44,717.7,620.93,361.78Z"/></g><g class="cls-1"><path d="M415.44,720.7a1,1,0,0,1-1-1V360.78a1,1,0,0,1,2,0V719.7A1,1,0,0,1,415.44,720.7Z"/></g><g class="cls-1"><path d="M311.83,541.24a1,1,0,0,1-.5-1.87L622.16,359.91a1,1,0,0,1,1,1.74L312.33,541.1A1,1,0,0,1,311.83,541.24Z"/></g><g class="cls-1"><path d="M519.05,541.24a1,1,0,0,1-.5-.14L207.72,361.65a1,1,0,0,1,1-1.74L519.55,539.37a1,1,0,0,1-.5,1.87Z"/></g><g class="cls-1"><path d="M829.88,720.7a1,1,0,0,1-.86-.5L621.79,361.28a1,1,0,0,1,0-1,1,1,0,0,1,.87-.5H1037.1a1,1,0,0,1,.87.5,1,1,0,0,1,0,1L830.75,720.2A1,1,0,0,1,829.88,720.7ZM624.39,361.78,829.88,717.7l205.49-355.92Z"/></g><g class="cls-1"><path d="M829.88,720.7a1,1,0,0,1-1-1V360.78a1,1,0,1,1,2,0V719.7A1,1,0,0,1,829.88,720.7Z"/></g><g class="cls-1"><path d="M933.49,541.24a1,1,0,0,1-.5-.14L622.16,361.65a1,1,0,1,1,1-1.74L934,539.37a1,1,0,0,1-.5,1.87Z"/></g><g class="cls-1"><path d="M726.27,541.24a1,1,0,0,1-.5-1.87L1036.6,359.91a1,1,0,1,1,1,1.74L726.77,541.1A1,1,0,0,1,726.27,541.24Z"/></g><g class="cls-2"><path d="M622.66,360.92H208.22a1,1,0,0,1-.87-.5,1,1,0,0,1,0-1L414.57.5a1,1,0,0,1,1.74,0L623.53,359.42a1,1,0,0,1,0,1A1,1,0,0,1,622.66,360.92Zm-412.71-2h411L415.44,3Z"/></g><g class="cls-2"><path d="M415.44,360.92a1,1,0,0,1-1-1V1a1,1,0,0,1,2,0V359.92A1,1,0,0,1,415.44,360.92Z"/></g><g class="cls-2"><path d="M208.22,360.91a1,1,0,0,1-.5-1.86L518.55,179.59a1,1,0,1,1,1,1.73L208.72,360.78A1,1,0,0,1,208.22,360.91Z"/></g><g class="cls-2"><path d="M622.66,360.91a1,1,0,0,1-.5-.13L311.33,181.32a1,1,0,1,1,1-1.73L623.16,359.05a1,1,0,0,1,.37,1.36A1,1,0,0,1,622.66,360.91Z"/></g><g class="cls-2"><path d="M1037.1,360.92H622.66a1,1,0,0,1-.87-.5,1,1,0,0,1,0-1L829,.5a1,1,0,0,1,1.73,0L1038,359.42a1,1,0,0,1,0,1A1,1,0,0,1,1037.1,360.92Zm-412.71-2h411L829.88,3Z"/></g><g class="cls-2"><path d="M829.88,360.92a1,1,0,0,1-1-1V1a1,1,0,0,1,2,0V359.92A1,1,0,0,1,829.88,360.92Z"/></g><g class="cls-2"><path d="M1037.1,360.91a1,1,0,0,1-.5-.13L725.77,181.32a1,1,0,0,1,1-1.73L1037.6,359.05a1,1,0,0,1-.5,1.86Z"/></g><g class="cls-2"><path d="M622.66,360.91a1,1,0,0,1-.5-1.86L933,179.59a1,1,0,0,1,1.37.37,1,1,0,0,1-.37,1.36L623.16,360.78A1,1,0,0,1,622.66,360.91Z"/></g><g class="cls-2"><path d="M622.66,360.92a1,1,0,0,1-.87-.5L414.57,1.5a1,1,0,0,1,0-1,1,1,0,0,1,.87-.5H829.88a1,1,0,0,1,.87.5,1,1,0,0,1,0,1L623.53,360.42A1,1,0,0,1,622.66,360.92ZM417.17,2,622.66,357.92,828.15,2Z"/></g><g class="cls-2"><path d="M622.66,360.92a1,1,0,0,1-1-1V1a1,1,0,0,1,2,0V359.92A1,1,0,0,1,622.66,360.92Z"/></g><g class="cls-2"><path d="M519.05,181.46a1,1,0,0,1-.86-.5,1,1,0,0,1,.36-1.36L829.38.14a1,1,0,1,1,1,1.73L519.55,181.33A1,1,0,0,1,519.05,181.46Z"/></g><g class="cls-2"><path d="M726.27,181.46a1,1,0,0,1-.5-.13L414.94,1.87A1,1,0,0,1,414.57.5a1,1,0,0,1,1.37-.36L726.77,179.6a1,1,0,0,1,.37,1.36A1,1,0,0,1,726.27,181.46Z"/></g><g class="cls-1"><path d="M622.66,1079.61a1,1,0,0,1-.87-.5L414.57,720.2a1,1,0,0,1,0-1,1,1,0,0,1,.87-.5H829.88a1,1,0,0,1,.87.5,1,1,0,0,1,0,1L623.53,1079.11A1,1,0,0,1,622.66,1079.61ZM417.17,720.7l205.49,355.91L828.15,720.7Z"/></g><g class="cls-1"><path d="M622.66,1079.61a1,1,0,0,1-1-1V719.7a1,1,0,0,1,2,0v358.91A1,1,0,0,1,622.66,1079.61Z"/></g><g class="cls-1"><path d="M726.27,900.16a.93.93,0,0,1-.5-.14L414.94,720.56a1,1,0,1,1,1-1.73L726.77,898.29a1,1,0,0,1-.5,1.87Z"/></g><g class="cls-1"><path d="M519.05,900.16a1,1,0,0,1-.5-1.87L829.38,718.83a1,1,0,0,1,1.37.37,1,1,0,0,1-.37,1.36L519.55,900A.93.93,0,0,1,519.05,900.16Z"/></g><g class="cls-3"><path d="M415.44,720.7H1a1,1,0,0,1-.87-.5,1,1,0,0,1,0-1L207.35,360.28a1,1,0,0,1,1.74,0L416.31,719.2a1,1,0,0,1,0,1A1,1,0,0,1,415.44,720.7Zm-412.71-2h411L208.22,362.78Z"/></g><g class="cls-3"><path d="M208.22,720.7a1,1,0,0,1-1-1V360.78a1,1,0,0,1,2,0V719.7A1,1,0,0,1,208.22,720.7Z"/></g><g class="cls-3"><path d="M1,720.69a1,1,0,0,1-.87-.5,1,1,0,0,1,.37-1.36L311.33,539.36a1,1,0,0,1,1,1.74L1.5,720.56A1,1,0,0,1,1,720.69Z"/></g><g class="cls-3"><path d="M415.44,720.69a1,1,0,0,1-.5-.13L104.11,541.1a1,1,0,0,1,1-1.74L415.94,718.83a1,1,0,0,1,.37,1.36A1,1,0,0,1,415.44,720.69Z"/></g><g class="cls-3"><path d="M1244.32,720.7H829.88a1,1,0,0,1-.86-.5,1,1,0,0,1,0-1l207.21-358.92a1,1,0,0,1,1.74,0L1245.19,719.2a1,1,0,0,1,0,1A1,1,0,0,1,1244.32,720.7Zm-412.7-2h411L1037.1,362.78Z"/></g><g class="cls-3"><path d="M1037.1,720.7a1,1,0,0,1-1-1V360.78a1,1,0,0,1,2,0V719.7A1,1,0,0,1,1037.1,720.7Z"/></g><g class="cls-3"><path d="M1244.32,720.69a1,1,0,0,1-.5-.13L933,541.1a1,1,0,0,1,1-1.74l310.83,179.47a1,1,0,0,1,.37,1.36A1,1,0,0,1,1244.32,720.69Z"/></g><g class="cls-3"><path d="M829.88,720.69a1,1,0,0,1-.5-1.86l310.83-179.47a1,1,0,0,1,1,1.74L830.38,720.56A1,1,0,0,1,829.88,720.69Z"/></g><g class="cls-3"><path d="M623.47,1079.61H209a1,1,0,0,1-.87-.5,1,1,0,0,1,0-1L415.38,719.2a1,1,0,0,1,1.74,0l207.22,358.91a1,1,0,0,1,0,1A1,1,0,0,1,623.47,1079.61Zm-412.71-2h411L416.25,721.7Z"/></g><g class="cls-3"><path d="M416.25,1079.61a1,1,0,0,1-1-1V719.7a1,1,0,0,1,2,0v358.91A1,1,0,0,1,416.25,1079.61Z"/></g><g class="cls-3"><path d="M623.47,1079.61a1,1,0,0,1-.5-.13L312.14,900a1,1,0,0,1-.37-1.37,1,1,0,0,1,1.37-.36L624,1077.75a1,1,0,0,1,.37,1.36A1,1,0,0,1,623.47,1079.61Z"/></g><g class="cls-3"><path d="M209,1079.61a1,1,0,0,1-.87-.5,1,1,0,0,1,.37-1.36L519.36,898.29a1,1,0,0,1,1.36.36,1,1,0,0,1-.36,1.37L209.53,1079.48A1,1,0,0,1,209,1079.61Z"/></g><g class="cls-3"><path d="M1037.1,1079.61H622.66a1,1,0,0,1-.87-.5,1,1,0,0,1,0-1L829,719.2a1,1,0,0,1,1.73,0L1038,1078.11a1,1,0,0,1,0,1A1,1,0,0,1,1037.1,1079.61Zm-412.71-2h411L829.88,721.7Z"/></g><g class="cls-3"><path d="M829.88,1079.61a1,1,0,0,1-1-1V719.7a1,1,0,0,1,2,0v358.91A1,1,0,0,1,829.88,1079.61Z"/></g><g class="cls-3"><path d="M1037.1,1079.61a1,1,0,0,1-.5-.13L725.77,900a1,1,0,0,1-.36-1.37,1,1,0,0,1,1.36-.36l310.83,179.46a1,1,0,0,1,.37,1.36A1,1,0,0,1,1037.1,1079.61Z"/></g><g class="cls-3"><path d="M622.66,1079.61a1,1,0,0,1-.87-.5,1,1,0,0,1,.37-1.36L933,898.29a1,1,0,1,1,1,1.73L623.16,1079.48A1,1,0,0,1,622.66,1079.61Z"/></g><g class="cls-2"><path d="M209,1079.61a1,1,0,0,1-.87-.5L.94,720.19a1,1,0,0,1,0-1,1,1,0,0,1,.87-.5H416.25a1,1,0,0,1,.87.5,1,1,0,0,1,0,1L209.89,1079.11A1,1,0,0,1,209,1079.61ZM3.54,720.69,209,1076.61,414.52,720.69Z"/></g><g class="cls-2"><path d="M209,1079.61a1,1,0,0,1-1-1V719.69a1,1,0,0,1,2,0v358.92A1,1,0,0,1,209,1079.61Z"/></g><g class="cls-2"><path d="M105.42,900.15a1,1,0,0,1-.87-.5,1,1,0,0,1,.37-1.36L415.75,718.83a1,1,0,1,1,1,1.73L105.92,900A1,1,0,0,1,105.42,900.15Z"/></g><g class="cls-2"><path d="M312.64,900.15a1,1,0,0,1-.5-.13L1.31,720.56a1,1,0,1,1,1-1.73L313.14,898.29a1,1,0,0,1,.37,1.36A1,1,0,0,1,312.64,900.15Z"/></g><g class="cls-2"><path d="M1037.1,1079.61a1,1,0,0,1-.87-.5L829,720.19a1,1,0,0,1,.86-1.5h414.44a1,1,0,0,1,.87.5,1,1,0,0,1,0,1L1038,1079.11A1,1,0,0,1,1037.1,1079.61ZM831.62,720.69l205.48,355.92,205.49-355.92Z"/></g><g class="cls-2"><path d="M1037.1,1079.61a1,1,0,0,1-1-1V719.69a1,1,0,0,1,2,0v358.92A1,1,0,0,1,1037.1,1079.61Z"/></g><g class="cls-2"><path d="M1140.71,900.15a1,1,0,0,1-.5-.13L829.38,720.56a1,1,0,0,1,1-1.73l310.83,179.46a1,1,0,0,1,.37,1.36A1,1,0,0,1,1140.71,900.15Z"/></g><g class="cls-2"><path d="M933.49,900.15a1,1,0,0,1-.5-1.86l310.83-179.46a1,1,0,0,1,1.37.37,1,1,0,0,1-.37,1.36L934,900A1,1,0,0,1,933.49,900.15Z"/></g></g></g></svg>