<?xml version="1.0" encoding="UTF-8"?>
<svg width="286px" height="237px" viewBox="0 0 286 237" version="1.1" xmlns="http://www.w3.org/2000/svg" xmlns:xlink="http://www.w3.org/1999/xlink">
    <!-- Generator: Sketch 64 (93537) - https://sketch.com -->
    <title>Group 2</title>
    <desc>Created with Sketch.</desc>
    <g id="Page-1" stroke="none" stroke-width="1" fill="none" fill-rule="evenodd">
        <g id="Desktop-HD-Copy-7" transform="translate(-99.000000, -169.000000)">
            <g id="Group-2" transform="translate(100.000000, 170.000000)">
                <rect id="Rectangle-Copy-3" stroke="#E6E6E6" fill="#FFFFFF" x="0" y="0" width="284" height="235" rx="4"></rect>
                <path d="M38.5730461,136.070312 C39.5193351,136.070312 40.1345695,135.581055 40.1345695,134.798828 C40.1345695,134.201172 39.7859367,133.849609 38.9041008,133.65625 L38.4353508,133.553711 C37.8582023,133.427734 37.6326164,133.199219 37.6326164,132.865234 C37.6326164,132.43457 38.0398429,132.176758 38.5671867,132.176758 C39.1179679,132.176758 39.4841789,132.460938 39.5310539,132.923828 L40.0583976,132.923828 C40.0349601,132.206055 39.4255851,131.702148 38.5818351,131.702148 C37.7058586,131.702148 37.0906242,132.191406 37.0906242,132.888672 C37.0906242,133.489258 37.4568351,133.873047 38.3035148,134.057617 L38.7722648,134.160156 C39.3582023,134.289062 39.5925773,134.523438 39.5925773,134.87793 C39.5925773,135.293945 39.1765617,135.595703 38.6023429,135.595703 C37.9958976,135.595703 37.5740226,135.320312 37.5124992,134.866211 L36.9851554,134.866211 C37.0349601,135.595703 37.6501945,136.070312 38.5730461,136.070312 Z M41.9361322,136.023438 C42.0562494,136.023438 42.1968744,136.014648 42.2583978,136 L42.2583978,135.572266 C42.2232416,135.578125 42.1060541,135.586914 42.0474603,135.586914 C41.7867181,135.586914 41.6695306,135.460938 41.6695306,135.182617 L41.6695306,133.37207 L42.2613275,133.37207 L42.2613275,132.953125 L41.6695306,132.953125 L41.6695306,132.217773 L41.159765,132.217773 L41.159765,132.953125 L40.7056635,132.953125 L40.7056635,133.37207 L41.159765,133.37207 L41.159765,135.208984 C41.159765,135.794922 41.3765619,136.023438 41.9361322,136.023438 Z M43.9603512,136.052734 C44.3705074,136.052734 44.7572262,135.824219 44.9388668,135.475586 L44.9505855,135.475586 L44.9505855,136 L45.433984,136 L45.433984,133.893555 C45.433984,133.287109 44.9828121,132.900391 44.2679683,132.900391 C43.5472652,132.900391 43.0960933,133.304688 43.0609371,133.832031 L43.5531246,133.832031 C43.6175777,133.533203 43.8636715,133.348633 44.2562496,133.348633 C44.6781246,133.348633 44.9242183,133.571289 44.9242183,133.943359 L44.9242183,134.198242 L44.0511715,134.248047 C43.3480465,134.289062 42.9466793,134.617188 42.9466793,135.138672 C42.9466793,135.686523 43.3539058,136.052734 43.9603512,136.052734 Z M44.074609,135.619141 C43.708398,135.619141 43.465234,135.428711 43.465234,135.138672 C43.465234,134.851562 43.699609,134.669922 44.1097652,134.643555 L44.9242183,134.59375 L44.9242183,134.842773 C44.9242183,135.282227 44.5550777,135.619141 44.074609,135.619141 Z M46.9162107,136 L46.9162107,134.207031 C46.9162107,133.691406 47.2296873,133.351562 47.710156,133.351562 C48.178906,133.351562 48.4103514,133.621094 48.4103514,134.113281 L48.4103514,136 L48.920117,136 L48.920117,134.022461 C48.920117,133.331055 48.5333982,132.900391 47.8654295,132.900391 C47.3937498,132.900391 47.0685545,133.111328 46.8986326,133.439453 L46.8869139,133.439453 L46.8869139,132.953125 L46.4064451,132.953125 L46.4064451,136 L46.9162107,136 Z M51.046875,136.052734 C51.4863281,136.052734 51.8349609,135.835938 52.03125,135.484375 L52.0400391,135.484375 L52.0400391,136 L52.5263672,136 L52.5263672,131.772461 L52.0166016,131.772461 L52.0166016,133.448242 L52.0048828,133.448242 C51.8232422,133.114258 51.4716797,132.900391 51.0351562,132.900391 C50.2675781,132.900391 49.7431641,133.521484 49.7431641,134.476562 C49.7431641,135.431641 50.2705078,136.052734 51.046875,136.052734 Z M51.1435547,135.604492 C50.6044922,135.604492 50.2646484,135.167969 50.2646484,134.476562 C50.2646484,133.788086 50.6044922,133.348633 51.1435547,133.348633 C51.6679687,133.348633 52.0195312,133.796875 52.0195312,134.476562 C52.0195312,135.15918 51.6679687,135.604492 51.1435547,135.604492 Z M54.4304689,136.052734 C54.8406252,136.052734 55.2273439,135.824219 55.4089846,135.475586 L55.4207033,135.475586 L55.4207033,136 L55.9041018,136 L55.9041018,133.893555 C55.9041018,133.287109 55.4529299,132.900391 54.7380861,132.900391 C54.017383,132.900391 53.5662111,133.304688 53.5310549,133.832031 L54.0232424,133.832031 C54.0876955,133.533203 54.3337893,133.348633 54.7263674,133.348633 C55.1482424,133.348633 55.3943361,133.571289 55.3943361,133.943359 L55.3943361,134.198242 L54.5212893,134.248047 C53.8181643,134.289062 53.4167971,134.617188 53.4167971,135.138672 C53.4167971,135.686523 53.8240236,136.052734 54.4304689,136.052734 Z M54.5447268,135.619141 C54.1785158,135.619141 53.9353518,135.428711 53.9353518,135.138672 C53.9353518,134.851562 54.1697268,134.669922 54.579883,134.643555 L55.3943361,134.59375 L55.3943361,134.842773 C55.3943361,135.282227 55.0251955,135.619141 54.5447268,135.619141 Z M57.3863285,136 L57.3863285,134.101562 C57.3863285,133.670898 57.644141,133.386719 58.0396488,133.386719 C58.1626957,133.386719 58.2710941,133.401367 58.3121098,133.416016 L58.3121098,132.920898 C58.2710941,132.915039 58.1949223,132.900391 58.1070316,132.900391 C57.7496098,132.900391 57.4683598,133.114258 57.3687504,133.451172 L57.3570316,133.451172 L57.3570316,132.953125 L56.8765629,132.953125 L56.8765629,136 L57.3863285,136 Z M60.0580084,136.052734 C60.4974615,136.052734 60.8460943,135.835938 61.0423834,135.484375 L61.0511725,135.484375 L61.0511725,136 L61.5375006,136 L61.5375006,131.772461 L61.027735,131.772461 L61.027735,133.448242 L61.0160162,133.448242 C60.8343756,133.114258 60.4828131,132.900391 60.0462897,132.900391 C59.2787115,132.900391 58.7542975,133.521484 58.7542975,134.476562 C58.7542975,135.431641 59.2816412,136.052734 60.0580084,136.052734 Z M60.1546881,135.604492 C59.6156256,135.604492 59.2757818,135.167969 59.2757818,134.476562 C59.2757818,133.788086 59.6156256,133.348633 60.1546881,133.348633 C60.6791022,133.348633 61.0306647,133.796875 61.0306647,134.476562 C61.0306647,135.15918 60.6791022,135.604492 60.1546881,135.604492 Z" id="Standard" fill="#535353" fill-rule="nonzero"></path>
                <path d="M105.901171,136 L105.901171,131.772461 L105.373827,131.772461 L105.373827,136 L105.901171,136 Z M107.477148,136 L107.477148,134.207031 C107.477148,133.691406 107.790624,133.351562 108.271093,133.351562 C108.739843,133.351562 108.971288,133.621094 108.971288,134.113281 L108.971288,136 L109.481054,136 L109.481054,134.022461 C109.481054,133.331055 109.094335,132.900391 108.426367,132.900391 C107.954687,132.900391 107.629492,133.111328 107.45957,133.439453 L107.447851,133.439453 L107.447851,132.953125 L106.967382,132.953125 L106.967382,136 L107.477148,136 Z M111.833398,136 L112.952539,132.953125 L112.422265,132.953125 L111.578515,135.458008 L111.566796,135.458008 L110.725976,132.953125 L110.189843,132.953125 L111.311914,136 L111.833398,136 Z M114.841992,136.052734 C115.507031,136.052734 116.022656,135.660156 116.110547,135.126953 L115.60957,135.126953 C115.524609,135.414062 115.240429,135.610352 114.853711,135.610352 C114.305859,135.610352 113.963086,135.226562 113.963086,134.643555 L113.963086,134.614258 L116.148633,134.614258 L116.148633,134.420898 C116.148633,133.498047 115.641797,132.900391 114.818554,132.900391 C113.977734,132.900391 113.438672,133.541992 113.438672,134.488281 C113.438672,135.446289 113.968945,136.052734 114.841992,136.052734 Z M115.621289,134.21582 L113.966015,134.21582 C113.998242,133.708984 114.332226,133.342773 114.809765,133.342773 C115.290234,133.342773 115.60957,133.706055 115.621289,134.21582 Z M117.496094,136 L117.496094,134.101562 C117.496094,133.670898 117.753906,133.386719 118.149414,133.386719 C118.272461,133.386719 118.380859,133.401367 118.421875,133.416016 L118.421875,132.920898 C118.380859,132.915039 118.304687,132.900391 118.216797,132.900391 C117.859375,132.900391 117.578125,133.114258 117.478516,133.451172 L117.466797,133.451172 L117.466797,132.953125 L116.986328,132.953125 L116.986328,136 L117.496094,136 Z M120.217578,136.023438 C120.337696,136.023438 120.478321,136.014648 120.539844,136 L120.539844,135.572266 C120.504688,135.578125 120.3875,135.586914 120.328906,135.586914 C120.068164,135.586914 119.950977,135.460938 119.950977,135.182617 L119.950977,133.37207 L120.542774,133.37207 L120.542774,132.953125 L119.950977,132.953125 L119.950977,132.217773 L119.441211,132.217773 L119.441211,132.953125 L118.98711,132.953125 L118.98711,133.37207 L119.441211,133.37207 L119.441211,135.208984 C119.441211,135.794922 119.658008,136.023438 120.217578,136.023438 Z M122.575782,136.052734 C123.240821,136.052734 123.756446,135.660156 123.844336,135.126953 L123.34336,135.126953 C123.258399,135.414062 122.974219,135.610352 122.5875,135.610352 C122.039649,135.610352 121.696875,135.226562 121.696875,134.643555 L121.696875,134.614258 L123.882422,134.614258 L123.882422,134.420898 C123.882422,133.498047 123.375586,132.900391 122.552344,132.900391 C121.711524,132.900391 121.172461,133.541992 121.172461,134.488281 C121.172461,135.446289 121.702735,136.052734 122.575782,136.052734 Z M123.355079,134.21582 L121.699805,134.21582 C121.732032,133.708984 122.066016,133.342773 122.543555,133.342773 C123.024024,133.342773 123.34336,133.706055 123.355079,134.21582 Z M125.874415,136.052734 C126.313868,136.052734 126.662501,135.835938 126.85879,135.484375 L126.867579,135.484375 L126.867579,136 L127.353907,136 L127.353907,131.772461 L126.844141,131.772461 L126.844141,133.448242 L126.832422,133.448242 C126.650782,133.114258 126.299219,132.900391 125.862696,132.900391 C125.095118,132.900391 124.570704,133.521484 124.570704,134.476562 C124.570704,135.431641 125.098047,136.052734 125.874415,136.052734 Z M125.971094,135.604492 C125.432032,135.604492 125.092188,135.167969 125.092188,134.476562 C125.092188,133.788086 125.432032,133.348633 125.971094,133.348633 C126.495508,133.348633 126.847071,133.796875 126.847071,134.476562 C126.847071,135.15918 126.495508,135.604492 125.971094,135.604492 Z" id="Inverted" fill="#535353" fill-rule="nonzero"></path>
                <path d="M172.494043,136 L172.494043,132.742188 L172.51455,132.742188 L173.862207,136 L174.307519,136 L175.655175,132.742188 L175.675683,132.742188 L175.675683,136 L176.167871,136 L176.167871,131.772461 L175.555566,131.772461 L174.096582,135.329102 L174.073144,135.329102 L172.61416,131.772461 L172.001855,131.772461 L172.001855,136 L172.494043,136 Z M178.496777,136.052734 C179.337597,136.052734 179.905957,135.446289 179.905957,134.476562 C179.905957,133.503906 179.337597,132.900391 178.496777,132.900391 C177.653027,132.900391 177.084668,133.503906 177.084668,134.476562 C177.084668,135.446289 177.653027,136.052734 178.496777,136.052734 Z M178.496777,135.604492 C177.957715,135.604492 177.603222,135.194336 177.603222,134.476562 C177.603222,133.758789 177.957715,133.348633 178.496777,133.348633 C179.03584,133.348633 179.387402,133.758789 179.387402,134.476562 C179.387402,135.194336 179.03584,135.604492 178.496777,135.604492 Z M181.253418,136 L181.253418,134.207031 C181.253418,133.691406 181.566895,133.351562 182.047363,133.351562 C182.516113,133.351562 182.747559,133.621094 182.747559,134.113281 L182.747559,136 L183.257324,136 L183.257324,134.022461 C183.257324,133.331055 182.870605,132.900391 182.202637,132.900391 C181.730957,132.900391 181.405762,133.111328 181.23584,133.439453 L181.224121,133.439453 L181.224121,132.953125 L180.743652,132.953125 L180.743652,136 L181.253418,136 Z M185.492481,136.052734 C186.333301,136.052734 186.90166,135.446289 186.90166,134.476562 C186.90166,133.503906 186.333301,132.900391 185.492481,132.900391 C184.648731,132.900391 184.080371,133.503906 184.080371,134.476562 C184.080371,135.446289 184.648731,136.052734 185.492481,136.052734 Z M185.492481,135.604492 C184.953418,135.604492 184.598926,135.194336 184.598926,134.476562 C184.598926,133.758789 184.953418,133.348633 185.492481,133.348633 C186.031543,133.348633 186.383106,133.758789 186.383106,134.476562 C186.383106,135.194336 186.031543,135.604492 185.492481,135.604492 Z" id="Mono" fill="#535353" fill-rule="nonzero"></path>
                <path d="M25.5029297,166 L25.5029297,160.953125 L30.8984375,160.953125 L30.8984375,166 L33.4052734,166 L33.4052734,154.021973 L30.8984375,154.021973 L30.8984375,158.88623 L25.5029297,158.88623 L25.5029297,154.021973 L22.9960938,154.021973 L22.9960938,166 L25.5029297,166 Z M40.1698573,166.190918 C42.3695644,166.190918 43.9633144,165.020508 44.2289394,163.277344 L42.00433,163.277344 C41.7802089,163.958008 41.0995448,164.397949 40.2113612,164.397949 C38.9745448,164.397949 38.1693691,163.526367 38.1693691,162.256348 L38.1693691,162.106934 L44.3036464,162.106934 L44.3036464,161.368164 C44.3036464,158.662109 42.6683925,156.910645 40.0785487,156.910645 C37.4472011,156.910645 35.7870448,158.753418 35.7870448,161.592285 C35.7870448,164.439453 37.4305995,166.190918 40.1698573,166.190918 Z M41.9711269,160.621094 L38.1942714,160.621094 C38.2772792,159.508789 39.0409511,158.703613 40.1034511,158.703613 C41.1825526,158.703613 41.9213222,159.483887 41.9711269,160.621094 Z M49.1092459,166.141113 C50.2215506,166.141113 51.3255545,165.584961 51.8236014,164.638672 L51.8734061,164.638672 L51.8734061,166 L54.2142264,166 L54.2142264,159.882324 C54.2142264,158.089355 52.7283866,156.910645 50.4456717,156.910645 C48.0882498,156.910645 46.6190116,158.097656 46.527703,159.824219 L48.7440116,159.824219 C48.8602225,159.168457 49.4329764,158.720215 50.3377616,158.720215 C51.2508475,158.720215 51.8319022,159.20166 51.8319022,160.031738 L51.8319022,160.621094 L49.5906912,160.753906 C47.3743826,160.886719 46.1292655,161.824707 46.1292655,163.443359 C46.1292655,165.04541 47.4158866,166.141113 49.1092459,166.141113 Z M49.9061209,164.389648 C49.0843436,164.389648 48.536492,163.974609 48.536492,163.310547 C48.536492,162.679688 49.0511405,162.272949 49.9559256,162.206543 L51.8319022,162.090332 L51.8319022,162.737793 C51.8319022,163.700684 50.9603201,164.389648 49.9061209,164.389648 Z M59.9993181,166.141113 C61.3108415,166.141113 62.3401384,165.452148 62.771779,164.472656 L62.813283,164.472656 L62.813283,166 L65.203908,166 L65.203908,154.021973 L62.7800798,154.021973 L62.7800798,158.628906 L62.7302751,158.628906 C62.2986345,157.641113 61.3025408,156.960449 60.0159197,156.960449 C57.7830095,156.960449 56.3718767,158.711914 56.3718767,161.53418 C56.3718767,164.381348 57.7747087,166.141113 59.9993181,166.141113 Z M60.8210955,164.19043 C59.6008806,164.19043 58.8538103,163.186035 58.8538103,161.550781 C58.8538103,159.923828 59.6008806,158.902832 60.8210955,158.902832 C62.0247087,158.902832 62.7966814,159.932129 62.7966814,161.550781 C62.7966814,163.177734 62.0247087,164.19043 60.8210955,164.19043 Z M68.9885114,155.897949 C69.6940778,155.897949 70.2502301,155.333496 70.2502301,154.652832 C70.2502301,153.963867 69.6940778,153.407715 68.9885114,153.407715 C68.282945,153.407715 67.7267926,153.963867 67.7267926,154.652832 C67.7267926,155.333496 68.282945,155.897949 68.9885114,155.897949 Z M70.2087262,166 L70.2087262,157.101562 L67.7848981,157.101562 L67.7848981,166 L70.2087262,166 Z M75.1637398,166 L75.1637398,160.89502 C75.1637398,159.741211 75.8527047,158.944336 76.940107,158.944336 C78.0275093,158.944336 78.5753609,159.608398 78.5753609,160.770508 L78.5753609,166 L80.999189,166 L80.999189,160.26416 C80.999189,158.180664 79.8868843,156.935547 77.9112984,156.935547 C76.5416695,156.935547 75.6036812,157.583008 75.1305367,158.687012 L75.080732,158.687012 L75.080732,157.101562 L72.7399117,157.101562 L72.7399117,166 L75.1637398,166 Z M87.5230503,169.353516 C90.1876011,169.353516 91.9639682,167.992188 91.9639682,165.875488 L91.9639682,157.101562 L89.5733432,157.101562 L89.5733432,158.653809 L89.5318393,158.653809 C89.0669956,157.632812 88.0626011,156.960449 86.7842807,156.960449 C84.5264682,156.960449 83.131937,158.695312 83.131937,161.517578 C83.131937,164.29834 84.5679722,165.975098 86.7427768,165.975098 C88.0293979,165.975098 89.0752964,165.327637 89.4903354,164.381348 L89.5401401,164.381348 L89.5401401,165.941895 C89.5401401,166.971191 88.8428745,167.660156 87.5894565,167.660156 C86.6680698,167.660156 85.9708042,167.245117 85.7798862,166.630859 L83.4058628,166.630859 C83.5967807,168.216309 85.18223,169.353516 87.5230503,169.353516 Z M87.5645542,164.107422 C86.3609409,164.107422 85.6138706,163.161133 85.6138706,161.53418 C85.6138706,159.915527 86.3692417,158.902832 87.5645542,158.902832 C88.7764682,158.902832 89.5484409,159.932129 89.5484409,161.53418 C89.5484409,163.144531 88.7764682,164.107422 87.5645542,164.107422 Z M104.281222,166 L104.281222,154.021973 L101.790988,154.021973 L98.6947962,156.171875 L98.6947962,158.396484 L101.749484,156.321289 L101.799288,156.321289 L101.799288,166 L104.281222,166 Z" id="Heading1" fill="#000000" fill-rule="nonzero"></path>
                <path d="M140.464844,163 L140.464844,162.288086 L137.40625,162.288086 L137.40625,156.658691 L136.615234,156.658691 L136.615234,163 L140.464844,163 Z M143.466016,163.079102 C144.727246,163.079102 145.579785,162.169434 145.579785,160.714844 C145.579785,159.255859 144.727246,158.350586 143.466016,158.350586 C142.200391,158.350586 141.347852,159.255859 141.347852,160.714844 C141.347852,162.169434 142.200391,163.079102 143.466016,163.079102 Z M143.466016,162.406738 C142.657422,162.406738 142.125684,161.791504 142.125684,160.714844 C142.125684,159.638184 142.657422,159.022949 143.466016,159.022949 C144.27461,159.022949 144.801953,159.638184 144.801953,160.714844 C144.801953,161.791504 144.27461,162.406738 143.466016,162.406738 Z M147.600977,163 L147.600977,160.152344 C147.600977,159.506348 147.987696,159.080078 148.580958,159.080078 C148.765528,159.080078 148.928126,159.102051 148.989649,159.124023 L148.989649,158.381348 C148.928126,158.372559 148.813868,158.350586 148.682032,158.350586 C148.145899,158.350586 147.724024,158.671387 147.57461,159.176758 L147.557032,159.176758 L147.557032,158.429688 L146.836329,158.429688 L146.836329,163 L147.600977,163 Z M151.757911,163.079102 C152.75547,163.079102 153.528907,162.490234 153.660743,161.69043 L152.909278,161.69043 C152.781837,162.121094 152.355567,162.415527 151.775489,162.415527 C150.953712,162.415527 150.439552,161.839844 150.439552,160.965332 L150.439552,160.921387 L153.717872,160.921387 L153.717872,160.631348 C153.717872,159.24707 152.957618,158.350586 151.722755,158.350586 C150.461524,158.350586 149.652931,159.312988 149.652931,160.732422 C149.652931,162.169434 150.448341,163.079102 151.757911,163.079102 Z M152.926856,160.32373 L150.443946,160.32373 C150.492286,159.563477 150.993263,159.01416 151.709571,159.01416 C152.430274,159.01416 152.909278,159.559082 152.926856,160.32373 Z M155.739064,163 L155.739064,160.134766 C155.739064,159.501953 156.178517,159.027344 156.784962,159.027344 C157.351857,159.027344 157.720997,159.387695 157.720997,159.937012 L157.720997,163 L158.485646,163 L158.485646,160.095215 C158.485646,159.475586 158.911915,159.027344 159.518361,159.027344 C160.120411,159.027344 160.467579,159.396484 160.467579,160.020508 L160.467579,163 L161.232228,163 L161.232228,159.844727 C161.232228,158.939453 160.647755,158.350586 159.742482,158.350586 C159.10088,158.350586 158.564747,158.675781 158.309864,159.220703 L158.292286,159.220703 C158.094532,158.666992 157.633107,158.350586 157.009083,158.350586 C156.393849,158.350586 155.928029,158.675781 155.712697,159.15918 L155.695118,159.15918 L155.695118,158.429688 L154.974415,158.429688 L154.974415,163 L155.739064,163 Z M165.445998,157.616699 C165.714064,157.616699 165.925002,157.401367 165.925002,157.137695 C165.925002,156.869629 165.714064,156.658691 165.445998,156.658691 C165.182326,156.658691 164.966994,156.869629 164.966994,157.137695 C164.966994,157.401367 165.182326,157.616699 165.445998,157.616699 Z M165.828322,163 L165.828322,158.429688 L165.063674,158.429688 L165.063674,163 L165.828322,163 Z M168.113186,164.524902 L168.113186,162.257324 L168.130764,162.257324 C168.403225,162.758301 168.930569,163.079102 169.585354,163.079102 C170.736721,163.079102 171.523342,162.147461 171.523342,160.714844 C171.523342,159.282227 170.732326,158.350586 169.567776,158.350586 C168.904201,158.350586 168.372463,158.688965 168.091213,159.203125 L168.073635,159.203125 L168.073635,158.429688 L167.348537,158.429688 L167.348537,164.524902 L168.113186,164.524902 Z M169.418361,162.406738 C168.636135,162.406738 168.108791,161.734375 168.108791,160.714844 C168.108791,159.699707 168.636135,159.022949 169.418361,159.022949 C170.23135,159.022949 170.741115,159.682129 170.741115,160.714844 C170.741115,161.751953 170.23135,162.406738 169.418361,162.406738 Z M174.405862,163.079102 C175.425393,163.079102 176.176858,162.516602 176.176858,161.721191 C176.176858,161.066406 175.842873,160.706055 174.920022,160.481934 L174.194924,160.306152 C173.685159,160.183105 173.452248,159.967773 173.452248,159.651367 C173.452248,159.251465 173.821389,158.974609 174.379495,158.974609 C174.941995,158.974609 175.293557,159.269043 175.350686,159.748047 L176.080178,159.748047 C176.049416,158.939453 175.381448,158.350586 174.379495,158.350586 C173.390725,158.350586 172.700784,158.908691 172.700784,159.690918 C172.700784,160.350098 173.118264,160.75 173.979592,160.956543 L174.70469,161.132324 C175.227639,161.259766 175.407815,161.44873 175.407815,161.77832 C175.407815,162.191406 175.025491,162.455078 174.405862,162.455078 C173.786233,162.455078 173.43467,162.20459 173.342385,161.681641 L172.577737,161.681641 C172.665627,162.538574 173.333596,163.079102 174.405862,163.079102 Z M179.015432,163.079102 C179.718557,163.079102 180.193167,162.784668 180.465628,162.257324 L180.483206,162.257324 L180.483206,163 L181.208303,163 L181.208303,158.429688 L180.443655,158.429688 L180.443655,161.114746 C180.443655,161.892578 179.995413,162.402344 179.252737,162.402344 C178.545218,162.402344 178.19805,162.002441 178.19805,161.259766 L178.19805,158.429688 L177.433401,158.429688 L177.433401,161.395996 C177.433401,162.433105 178.017874,163.079102 179.015432,163.079102 Z M183.449222,163 L183.449222,160.134766 C183.449222,159.501953 183.888675,159.027344 184.49512,159.027344 C185.062015,159.027344 185.431155,159.387695 185.431155,159.937012 L185.431155,163 L186.195804,163 L186.195804,160.095215 C186.195804,159.475586 186.622073,159.027344 187.228519,159.027344 C187.830569,159.027344 188.177737,159.396484 188.177737,160.020508 L188.177737,163 L188.942386,163 L188.942386,159.844727 C188.942386,158.939453 188.357913,158.350586 187.45264,158.350586 C186.811038,158.350586 186.274905,158.675781 186.020023,159.220703 L186.002444,159.220703 C185.80469,158.666992 185.343265,158.350586 184.719241,158.350586 C184.104007,158.350586 183.638187,158.675781 183.422855,159.15918 L183.405276,159.15918 L183.405276,158.429688 L182.684573,158.429688 L182.684573,163 L183.449222,163 Z M194.465726,163.079102 C195.124906,163.079102 195.647855,162.753906 195.942289,162.226562 L195.955472,162.226562 L195.955472,163 L196.684965,163 L196.684965,156.658691 L195.920316,156.658691 L195.920316,159.172363 L195.902738,159.172363 C195.630277,158.671387 195.102933,158.350586 194.448148,158.350586 C193.296781,158.350586 192.51016,159.282227 192.51016,160.714844 C192.51016,162.147461 193.301175,163.079102 194.465726,163.079102 Z M194.610746,162.406738 C193.802152,162.406738 193.292386,161.751953 193.292386,160.714844 C193.292386,159.682129 193.802152,159.022949 194.610746,159.022949 C195.397367,159.022949 195.924711,159.695312 195.924711,160.714844 C195.924711,161.73877 195.397367,162.406738 194.610746,162.406738 Z M200.099223,163.079102 C201.360453,163.079102 202.212992,162.169434 202.212992,160.714844 C202.212992,159.255859 201.360453,158.350586 200.099223,158.350586 C198.833598,158.350586 197.981059,159.255859 197.981059,160.714844 C197.981059,162.169434 198.833598,163.079102 200.099223,163.079102 Z M200.099223,162.406738 C199.290629,162.406738 198.758891,161.791504 198.758891,160.714844 C198.758891,159.638184 199.290629,159.022949 200.099223,159.022949 C200.907816,159.022949 201.43516,159.638184 201.43516,160.714844 C201.43516,161.791504 200.907816,162.406738 200.099223,162.406738 Z M204.273735,163 L204.273735,156.658691 L203.509086,156.658691 L203.509086,163 L204.273735,163 Z M207.687993,163.079102 C208.949223,163.079102 209.801762,162.169434 209.801762,160.714844 C209.801762,159.255859 208.949223,158.350586 207.687993,158.350586 C206.422368,158.350586 205.569829,159.255859 205.569829,160.714844 C205.569829,162.169434 206.422368,163.079102 207.687993,163.079102 Z M207.687993,162.406738 C206.879399,162.406738 206.347661,161.791504 206.347661,160.714844 C206.347661,159.638184 206.879399,159.022949 207.687993,159.022949 C208.496587,159.022949 209.02393,159.638184 209.02393,160.714844 C209.02393,161.791504 208.496587,162.406738 207.687993,162.406738 Z M211.822954,163 L211.822954,160.152344 C211.822954,159.506348 212.209673,159.080078 212.802934,159.080078 C212.987505,159.080078 213.150102,159.102051 213.211626,159.124023 L213.211626,158.381348 C213.150102,158.372559 213.035845,158.350586 212.904009,158.350586 C212.367876,158.350586 211.946001,158.671387 211.796587,159.176758 L211.779009,159.176758 L211.779009,158.429688 L211.058306,158.429688 L211.058306,163 L211.822954,163 Z M218.277935,163.079102 C219.297466,163.079102 220.048931,162.516602 220.048931,161.721191 C220.048931,161.066406 219.714947,160.706055 218.792095,160.481934 L218.066998,160.306152 C217.557232,160.183105 217.324322,159.967773 217.324322,159.651367 C217.324322,159.251465 217.693462,158.974609 218.251568,158.974609 C218.814068,158.974609 219.16563,159.269043 219.222759,159.748047 L219.952251,159.748047 C219.92149,158.939453 219.253521,158.350586 218.251568,158.350586 C217.262798,158.350586 216.572857,158.908691 216.572857,159.690918 C216.572857,160.350098 216.990337,160.75 217.851666,160.956543 L218.576763,161.132324 C219.099712,161.259766 219.279888,161.44873 219.279888,161.77832 C219.279888,162.191406 218.897564,162.455078 218.277935,162.455078 C217.658306,162.455078 217.306744,162.20459 217.214459,161.681641 L216.44981,161.681641 C216.537701,162.538574 217.205669,163.079102 218.277935,163.079102 Z M221.749322,157.616699 C222.017389,157.616699 222.228326,157.401367 222.228326,157.137695 C222.228326,156.869629 222.017389,156.658691 221.749322,156.658691 C221.48565,156.658691 221.270318,156.869629 221.270318,157.137695 C221.270318,157.401367 221.48565,157.616699 221.749322,157.616699 Z M222.131646,163 L222.131646,158.429688 L221.366998,158.429688 L221.366998,163 L222.131646,163 Z M225.062506,163.035156 C225.242682,163.035156 225.453619,163.021973 225.545904,163 L225.545904,162.358398 C225.49317,162.367188 225.317389,162.380371 225.229498,162.380371 C224.838385,162.380371 224.662604,162.191406 224.662604,161.773926 L224.662604,159.058105 L225.550299,159.058105 L225.550299,158.429688 L224.662604,158.429688 L224.662604,157.32666 L223.897955,157.32666 L223.897955,158.429688 L223.216803,158.429688 L223.216803,159.058105 L223.897955,159.058105 L223.897955,161.813477 C223.897955,162.692383 224.223151,163.035156 225.062506,163.035156 Z M230.519928,163.079102 C231.135163,163.079102 231.715241,162.736328 231.987702,162.213379 L232.00528,162.213379 L232.00528,163 L232.730378,163 L232.730378,159.840332 C232.730378,158.930664 232.05362,158.350586 230.981354,158.350586 C229.9003,158.350586 229.223542,158.957031 229.170807,159.748047 L229.909089,159.748047 C230.005768,159.299805 230.374909,159.022949 230.963776,159.022949 C231.596589,159.022949 231.965729,159.356934 231.965729,159.915039 L231.965729,160.297363 L230.656159,160.37207 C229.601471,160.433594 228.999421,160.925781 228.999421,161.708008 C228.999421,162.529785 229.610261,163.079102 230.519928,163.079102 Z M230.691315,162.428711 C230.141999,162.428711 229.777253,162.143066 229.777253,161.708008 C229.777253,161.277344 230.128815,161.004883 230.74405,160.965332 L231.965729,160.890625 L231.965729,161.26416 C231.965729,161.92334 231.412018,162.428711 230.691315,162.428711 Z M234.953718,163 L234.953718,160.134766 C234.953718,159.501953 235.393171,159.027344 235.999616,159.027344 C236.566511,159.027344 236.935651,159.387695 236.935651,159.937012 L236.935651,163 L237.7003,163 L237.7003,160.095215 C237.7003,159.475586 238.126569,159.027344 238.733015,159.027344 C239.335065,159.027344 239.682233,159.396484 239.682233,160.020508 L239.682233,163 L240.446882,163 L240.446882,159.844727 C240.446882,158.939453 239.862409,158.350586 238.957136,158.350586 C238.315534,158.350586 237.779401,158.675781 237.524519,159.220703 L237.50694,159.220703 C237.309187,158.666992 236.847761,158.350586 236.223737,158.350586 C235.608503,158.350586 235.142683,158.675781 234.927351,159.15918 L234.909773,159.15918 L234.909773,158.429688 L234.189069,158.429688 L234.189069,163 L234.953718,163 Z M243.786433,163.079102 C244.783992,163.079102 245.557429,162.490234 245.689265,161.69043 L244.9378,161.69043 C244.810359,162.121094 244.384089,162.415527 243.804011,162.415527 C242.982234,162.415527 242.468074,161.839844 242.468074,160.965332 L242.468074,160.921387 L245.746394,160.921387 L245.746394,160.631348 C245.746394,159.24707 244.98614,158.350586 243.751277,158.350586 C242.490046,158.350586 241.681453,159.312988 241.681453,160.732422 C241.681453,162.169434 242.476863,163.079102 243.786433,163.079102 Z M244.955378,160.32373 L242.472468,160.32373 C242.520808,159.563477 243.021785,159.01416 243.738093,159.01416 C244.458796,159.01416 244.9378,159.559082 244.955378,160.32373 Z M248.413582,163.035156 C248.593757,163.035156 248.804695,163.021973 248.89698,163 L248.89698,162.358398 C248.844246,162.367188 248.668465,162.380371 248.580574,162.380371 C248.189461,162.380371 248.013679,162.191406 248.013679,161.773926 L248.013679,159.058105 L248.901375,159.058105 L248.901375,158.429688 L248.013679,158.429688 L248.013679,157.32666 L247.249031,157.32666 L247.249031,158.429688 L246.567879,158.429688 L246.567879,159.058105 L247.249031,159.058105 L247.249031,161.813477 C247.249031,162.692383 247.574226,163.035156 248.413582,163.035156 Z M250.724812,164.26123 L251.326863,162.024414 L250.513875,162.024414 L250.087605,164.26123 L250.724812,164.26123 Z M138.381836,174.079102 C139.418945,174.079102 140.183594,173.4375 140.302246,172.527832 L139.550781,172.527832 C139.418945,173.077148 139.010254,173.406738 138.38623,173.406738 C137.595215,173.406738 137.050293,172.77832 137.050293,171.714844 C137.050293,170.677734 137.586426,170.022949 138.377441,170.022949 C139.049805,170.022949 139.436523,170.431641 139.546387,170.928223 L140.293457,170.928223 C140.196777,170.106445 139.515625,169.350586 138.373047,169.350586 C137.111816,169.350586 136.272461,170.273438 136.272461,171.714844 C136.272461,173.187012 137.116211,174.079102 138.381836,174.079102 Z M143.386914,174.079102 C144.648145,174.079102 145.500684,173.169434 145.500684,171.714844 C145.500684,170.255859 144.648145,169.350586 143.386914,169.350586 C142.121289,169.350586 141.26875,170.255859 141.26875,171.714844 C141.26875,173.169434 142.121289,174.079102 143.386914,174.079102 Z M143.386914,173.406738 C142.578321,173.406738 142.046582,172.791504 142.046582,171.714844 C142.046582,170.638184 142.578321,170.022949 143.386914,170.022949 C144.195508,170.022949 144.722852,170.638184 144.722852,171.714844 C144.722852,172.791504 144.195508,173.406738 143.386914,173.406738 Z M147.521876,174 L147.521876,171.310547 C147.521876,170.537109 147.99209,170.027344 148.712794,170.027344 C149.415919,170.027344 149.763087,170.431641 149.763087,171.169922 L149.763087,174 L150.527735,174 L150.527735,171.033691 C150.527735,169.996582 149.947657,169.350586 148.945704,169.350586 C148.238184,169.350586 147.750391,169.666992 147.495508,170.15918 L147.47793,170.15918 L147.47793,169.429688 L146.757227,169.429688 L146.757227,174 L147.521876,174 Z M153.612403,174.079102 C154.631934,174.079102 155.383399,173.516602 155.383399,172.721191 C155.383399,172.066406 155.049415,171.706055 154.126563,171.481934 L153.401466,171.306152 C152.8917,171.183105 152.65879,170.967773 152.65879,170.651367 C152.65879,170.251465 153.027931,169.974609 153.586036,169.974609 C154.148536,169.974609 154.500099,170.269043 154.557227,170.748047 L155.28672,170.748047 C155.255958,169.939453 154.587989,169.350586 153.586036,169.350586 C152.597267,169.350586 151.907325,169.908691 151.907325,170.690918 C151.907325,171.350098 152.324806,171.75 153.186134,171.956543 L153.911231,172.132324 C154.434181,172.259766 154.614356,172.44873 154.614356,172.77832 C154.614356,173.191406 154.232032,173.455078 153.612403,173.455078 C152.992774,173.455078 152.641212,173.20459 152.548927,172.681641 L151.784278,172.681641 C151.872169,173.538574 152.540138,174.079102 153.612403,174.079102 Z M158.542775,174.079102 C159.540333,174.079102 160.313771,173.490234 160.445607,172.69043 L159.694142,172.69043 C159.5667,173.121094 159.140431,173.415527 158.560353,173.415527 C157.738575,173.415527 157.224415,172.839844 157.224415,171.965332 L157.224415,171.921387 L160.502736,171.921387 L160.502736,171.631348 C160.502736,170.24707 159.742482,169.350586 158.507618,169.350586 C157.246388,169.350586 156.437794,170.312988 156.437794,171.732422 C156.437794,173.169434 157.233204,174.079102 158.542775,174.079102 Z M159.71172,171.32373 L157.22881,171.32373 C157.27715,170.563477 157.778126,170.01416 158.494435,170.01416 C159.215138,170.01416 159.694142,170.559082 159.71172,171.32373 Z M163.644533,174.079102 C164.681642,174.079102 165.446291,173.4375 165.564943,172.527832 L164.813478,172.527832 C164.681642,173.077148 164.272951,173.406738 163.648927,173.406738 C162.857912,173.406738 162.31299,172.77832 162.31299,171.714844 C162.31299,170.677734 162.849123,170.022949 163.640138,170.022949 C164.312501,170.022949 164.69922,170.431641 164.809084,170.928223 L165.556154,170.928223 C165.459474,170.106445 164.778322,169.350586 163.635744,169.350586 C162.374513,169.350586 161.535158,170.273438 161.535158,171.714844 C161.535158,173.187012 162.378908,174.079102 163.644533,174.079102 Z M168.166213,174.035156 C168.346389,174.035156 168.557326,174.021973 168.649611,174 L168.649611,173.358398 C168.596877,173.367188 168.421096,173.380371 168.333205,173.380371 C167.942092,173.380371 167.76631,173.191406 167.76631,172.773926 L167.76631,170.058105 L168.654006,170.058105 L168.654006,169.429688 L167.76631,169.429688 L167.76631,168.32666 L167.001662,168.32666 L167.001662,169.429688 L166.32051,169.429688 L166.32051,170.058105 L167.001662,170.058105 L167.001662,172.813477 C167.001662,173.692383 167.326857,174.035156 168.166213,174.035156 Z M171.703518,174.079102 C172.701076,174.079102 173.474514,173.490234 173.60635,172.69043 L172.854885,172.69043 C172.727444,173.121094 172.301174,173.415527 171.721096,173.415527 C170.899319,173.415527 170.385158,172.839844 170.385158,171.965332 L170.385158,171.921387 L173.663479,171.921387 L173.663479,171.631348 C173.663479,170.24707 172.903225,169.350586 171.668361,169.350586 C170.407131,169.350586 169.598537,170.312988 169.598537,171.732422 C169.598537,173.169434 170.393947,174.079102 171.703518,174.079102 Z M172.872463,171.32373 L170.389553,171.32373 C170.437893,170.563477 170.938869,170.01416 171.655178,170.01416 C172.375881,170.01416 172.854885,170.559082 172.872463,171.32373 Z M176.330666,174.035156 C176.510842,174.035156 176.72178,174.021973 176.814065,174 L176.814065,173.358398 C176.761331,173.367188 176.585549,173.380371 176.497659,173.380371 C176.106545,173.380371 175.930764,173.191406 175.930764,172.773926 L175.930764,170.058105 L176.818459,170.058105 L176.818459,169.429688 L175.930764,169.429688 L175.930764,168.32666 L175.166116,168.32666 L175.166116,169.429688 L174.484963,169.429688 L174.484963,170.058105 L175.166116,170.058105 L175.166116,172.813477 C175.166116,173.692383 175.491311,174.035156 176.330666,174.035156 Z M179.679007,174.079102 C180.382132,174.079102 180.856741,173.784668 181.129202,173.257324 L181.14678,173.257324 L181.14678,174 L181.871878,174 L181.871878,169.429688 L181.107229,169.429688 L181.107229,172.114746 C181.107229,172.892578 180.658987,173.402344 179.916311,173.402344 C179.208792,173.402344 178.861624,173.002441 178.861624,172.259766 L178.861624,169.429688 L178.096975,169.429688 L178.096975,172.395996 C178.096975,173.433105 178.681448,174.079102 179.679007,174.079102 Z M184.112796,174 L184.112796,171.152344 C184.112796,170.506348 184.499515,170.080078 185.092776,170.080078 C185.277347,170.080078 185.439944,170.102051 185.501468,170.124023 L185.501468,169.381348 C185.439944,169.372559 185.325687,169.350586 185.193851,169.350586 C184.657718,169.350586 184.235843,169.671387 184.086429,170.176758 L184.068851,170.176758 L184.068851,169.429688 L183.348148,169.429688 L183.348148,174 L184.112796,174 Z M190.277738,174.079102 C190.892972,174.079102 191.47305,173.736328 191.745511,173.213379 L191.76309,173.213379 L191.76309,174 L192.488187,174 L192.488187,170.840332 C192.488187,169.930664 191.811429,169.350586 190.739164,169.350586 C189.658109,169.350586 188.981351,169.957031 188.928617,170.748047 L189.666898,170.748047 C189.763578,170.299805 190.132718,170.022949 190.721586,170.022949 C191.354398,170.022949 191.723539,170.356934 191.723539,170.915039 L191.723539,171.297363 L190.413968,171.37207 C189.359281,171.433594 188.75723,171.925781 188.75723,172.708008 C188.75723,173.529785 189.36807,174.079102 190.277738,174.079102 Z M190.449125,173.428711 C189.899808,173.428711 189.535062,173.143066 189.535062,172.708008 C189.535062,172.277344 189.886625,172.004883 190.501859,171.965332 L191.723539,171.890625 L191.723539,172.26416 C191.723539,172.92334 191.169828,173.428711 190.449125,173.428711 Z M195.678324,174.079102 C196.337504,174.079102 196.860453,173.753906 197.154887,173.226562 L197.16807,173.226562 L197.16807,174 L197.897562,174 L197.897562,167.658691 L197.132914,167.658691 L197.132914,170.172363 L197.115336,170.172363 C196.842875,169.671387 196.315531,169.350586 195.660746,169.350586 C194.509379,169.350586 193.722758,170.282227 193.722758,171.714844 C193.722758,173.147461 194.513773,174.079102 195.678324,174.079102 Z M195.823344,173.406738 C195.01475,173.406738 194.504984,172.751953 194.504984,171.714844 C194.504984,170.682129 195.01475,170.022949 195.823344,170.022949 C196.609965,170.022949 197.137309,170.695312 197.137309,171.714844 C197.137309,172.73877 196.609965,173.406738 195.823344,173.406738 Z M199.839653,168.616699 C200.107719,168.616699 200.318657,168.401367 200.318657,168.137695 C200.318657,167.869629 200.107719,167.658691 199.839653,167.658691 C199.575981,167.658691 199.360649,167.869629 199.360649,168.137695 C199.360649,168.401367 199.575981,168.616699 199.839653,168.616699 Z M200.221977,174 L200.221977,169.429688 L199.457328,169.429688 L199.457328,174 L200.221977,174 Z M202.50684,175.524902 L202.50684,173.257324 L202.524419,173.257324 C202.796879,173.758301 203.324223,174.079102 203.979008,174.079102 C205.130376,174.079102 205.916997,173.147461 205.916997,171.714844 C205.916997,170.282227 205.125981,169.350586 203.96143,169.350586 C203.297856,169.350586 202.766118,169.688965 202.484868,170.203125 L202.46729,170.203125 L202.46729,169.429688 L201.742192,169.429688 L201.742192,175.524902 L202.50684,175.524902 Z M203.812016,173.406738 C203.02979,173.406738 202.502446,172.734375 202.502446,171.714844 C202.502446,170.699707 203.02979,170.022949 203.812016,170.022949 C204.625004,170.022949 205.13477,170.682129 205.13477,171.714844 C205.13477,172.751953 204.625004,173.406738 203.812016,173.406738 Z M207.595415,168.616699 C207.863481,168.616699 208.074419,168.401367 208.074419,168.137695 C208.074419,167.869629 207.863481,167.658691 207.595415,167.658691 C207.331743,167.658691 207.116411,167.869629 207.116411,168.137695 C207.116411,168.401367 207.331743,168.616699 207.595415,168.616699 Z M207.977739,174 L207.977739,169.429688 L207.213091,169.429688 L207.213091,174 L207.977739,174 Z M211.123931,174.079102 C212.143462,174.079102 212.894927,173.516602 212.894927,172.721191 C212.894927,172.066406 212.560943,171.706055 211.638091,171.481934 L210.912993,171.306152 C210.403228,171.183105 210.170318,170.967773 210.170318,170.651367 C210.170318,170.251465 210.539458,169.974609 211.097564,169.974609 C211.660064,169.974609 212.011626,170.269043 212.068755,170.748047 L212.798247,170.748047 C212.767486,169.939453 212.099517,169.350586 211.097564,169.350586 C210.108794,169.350586 209.418853,169.908691 209.418853,170.690918 C209.418853,171.350098 209.836333,171.75 210.697661,171.956543 L211.422759,172.132324 C211.945708,172.259766 212.125884,172.44873 212.125884,172.77832 C212.125884,173.191406 211.74356,173.455078 211.123931,173.455078 C210.504302,173.455078 210.152739,173.20459 210.060454,172.681641 L209.295806,172.681641 C209.383697,173.538574 210.051665,174.079102 211.123931,174.079102 Z M216.058697,174.079102 C217.095806,174.079102 217.860455,173.4375 217.979107,172.527832 L217.227642,172.527832 C217.095806,173.077148 216.687115,173.406738 216.063091,173.406738 C215.272076,173.406738 214.727154,172.77832 214.727154,171.714844 C214.727154,170.677734 215.263287,170.022949 216.054302,170.022949 C216.726666,170.022949 217.113384,170.431641 217.223248,170.928223 L217.970318,170.928223 C217.873638,170.106445 217.192486,169.350586 216.049908,169.350586 C214.788677,169.350586 213.949322,170.273438 213.949322,171.714844 C213.949322,173.187012 214.793072,174.079102 216.058697,174.079102 Z M219.591607,168.616699 C219.859674,168.616699 220.070611,168.401367 220.070611,168.137695 C220.070611,167.869629 219.859674,167.658691 219.591607,167.658691 C219.327935,167.658691 219.112603,167.869629 219.112603,168.137695 C219.112603,168.401367 219.327935,168.616699 219.591607,168.616699 Z M219.973931,174 L219.973931,169.429688 L219.209283,169.429688 L219.209283,174 L219.973931,174 Z M222.258795,174 L222.258795,171.310547 C222.258795,170.537109 222.72901,170.027344 223.449713,170.027344 C224.152838,170.027344 224.500006,170.431641 224.500006,171.169922 L224.500006,174 L225.264654,174 L225.264654,171.033691 C225.264654,169.996582 224.684576,169.350586 223.682623,169.350586 C222.975104,169.350586 222.487311,169.666992 222.232428,170.15918 L222.21485,170.15918 L222.21485,169.429688 L221.494147,169.429688 L221.494147,174 L222.258795,174 Z M228.6086,175.722656 C229.869831,175.722656 230.67403,174.997559 230.67403,173.907715 L230.67403,169.429688 L229.944538,169.429688 L229.944538,170.19873 L229.931354,170.19873 C229.628131,169.666992 229.091998,169.350586 228.446002,169.350586 C227.263873,169.350586 226.499225,170.264648 226.499225,171.697266 C226.499225,173.116699 227.263873,174.035156 228.428424,174.035156 C229.070026,174.035156 229.610553,173.709961 229.891803,173.213379 L229.909381,173.213379 L229.909381,173.934082 C229.909381,174.615234 229.430377,175.072266 228.639362,175.072266 C228.068073,175.072266 227.615436,174.79541 227.466022,174.37793 L226.679401,174.37793 C226.806842,175.155762 227.602252,175.722656 228.6086,175.722656 Z M228.582233,173.362793 C227.795612,173.362793 227.281452,172.721191 227.281452,171.697266 C227.281452,170.67334 227.795612,170.022949 228.582233,170.022949 C229.377643,170.022949 229.909381,170.690918 229.909381,171.697266 C229.909381,172.703613 229.377643,173.362793 228.582233,173.362793 Z M236.368757,174.079102 C237.366315,174.079102 238.139753,173.490234 238.271589,172.69043 L237.520124,172.69043 C237.392683,173.121094 236.966413,173.415527 236.386335,173.415527 C235.564558,173.415527 235.050398,172.839844 235.050398,171.965332 L235.050398,171.921387 L238.328718,171.921387 L238.328718,171.631348 C238.328718,170.24707 237.568464,169.350586 236.333601,169.350586 C235.07237,169.350586 234.263776,170.312988 234.263776,171.732422 C234.263776,173.169434 235.059187,174.079102 236.368757,174.079102 Z M237.537702,171.32373 L235.054792,171.32373 C235.103132,170.563477 235.604108,170.01416 236.320417,170.01416 C237.04112,170.01416 237.520124,170.559082 237.537702,171.32373 Z M240.38946,174 L240.38946,167.658691 L239.624812,167.658691 L239.624812,174 L240.38946,174 Z M242.33155,168.616699 C242.599617,168.616699 242.810554,168.401367 242.810554,168.137695 C242.810554,167.869629 242.599617,167.658691 242.33155,167.658691 C242.067879,167.658691 241.852547,167.869629 241.852547,168.137695 C241.852547,168.401367 242.067879,168.616699 242.33155,168.616699 Z M242.713875,174 L242.713875,169.429688 L241.949226,169.429688 L241.949226,174 L242.713875,174 Z M245.644734,174.035156 C245.82491,174.035156 246.035848,174.021973 246.128133,174 L246.128133,173.358398 C246.075398,173.367188 245.899617,173.380371 245.811727,173.380371 C245.420613,173.380371 245.244832,173.191406 245.244832,172.773926 L245.244832,170.058105 L246.132527,170.058105 L246.132527,169.429688 L245.244832,169.429688 L245.244832,168.32666 L244.480184,168.32666 L244.480184,169.429688 L243.799031,169.429688 L243.799031,170.058105 L244.480184,170.058105 L244.480184,172.813477 C244.480184,173.692383 244.805379,174.035156 245.644734,174.035156 Z M247.955965,175.26123 L248.558016,173.024414 L247.745028,173.024414 L247.318758,175.26123 L247.955965,175.26123 Z M138.122559,185.079102 C139.14209,185.079102 139.893555,184.516602 139.893555,183.721191 C139.893555,183.066406 139.55957,182.706055 138.636719,182.481934 L137.911621,182.306152 C137.401855,182.183105 137.168945,181.967773 137.168945,181.651367 C137.168945,181.251465 137.538086,180.974609 138.096191,180.974609 C138.658691,180.974609 139.010254,181.269043 139.067383,181.748047 L139.796875,181.748047 C139.766113,180.939453 139.098145,180.350586 138.096191,180.350586 C137.107422,180.350586 136.41748,180.908691 136.41748,181.690918 C136.41748,182.350098 136.834961,182.75 137.696289,182.956543 L138.421387,183.132324 C138.944336,183.259766 139.124512,183.44873 139.124512,183.77832 C139.124512,184.191406 138.742188,184.455078 138.122559,184.455078 C137.50293,184.455078 137.151367,184.20459 137.059082,183.681641 L136.294434,183.681641 C136.382324,184.538574 137.050293,185.079102 138.122559,185.079102 Z M143.05293,185.079102 C144.050489,185.079102 144.823926,184.490234 144.955762,183.69043 L144.204297,183.69043 C144.076856,184.121094 143.650586,184.415527 143.070508,184.415527 C142.248731,184.415527 141.734571,183.839844 141.734571,182.965332 L141.734571,182.921387 L145.012891,182.921387 L145.012891,182.631348 C145.012891,181.24707 144.252637,180.350586 143.017774,180.350586 C141.756543,180.350586 140.94795,181.312988 140.94795,182.732422 C140.94795,184.169434 141.74336,185.079102 143.05293,185.079102 Z M144.221875,182.32373 L141.738965,182.32373 C141.787305,181.563477 142.288282,181.01416 143.00459,181.01416 C143.725293,181.01416 144.204297,181.559082 144.221875,182.32373 Z M148.00088,185.079102 C148.660059,185.079102 149.183008,184.753906 149.477442,184.226562 L149.490626,184.226562 L149.490626,185 L150.220118,185 L150.220118,178.658691 L149.455469,178.658691 L149.455469,181.172363 L149.437891,181.172363 C149.16543,180.671387 148.638087,180.350586 147.983301,180.350586 C146.831934,180.350586 146.045313,181.282227 146.045313,182.714844 C146.045313,184.147461 146.836329,185.079102 148.00088,185.079102 Z M148.145899,184.406738 C147.337305,184.406738 146.82754,183.751953 146.82754,182.714844 C146.82754,181.682129 147.337305,181.022949 148.145899,181.022949 C148.93252,181.022949 149.459864,181.695312 149.459864,182.714844 C149.459864,183.73877 148.93252,184.406738 148.145899,184.406738 Z M155.804982,185.079102 C156.464161,185.079102 156.987111,184.753906 157.281544,184.226562 L157.294728,184.226562 L157.294728,185 L158.02422,185 L158.02422,178.658691 L157.259572,178.658691 L157.259572,181.172363 L157.241993,181.172363 C156.969532,180.671387 156.442189,180.350586 155.787404,180.350586 C154.636036,180.350586 153.849415,181.282227 153.849415,182.714844 C153.849415,184.147461 154.640431,185.079102 155.804982,185.079102 Z M155.950001,184.406738 C155.141407,184.406738 154.631642,183.751953 154.631642,182.714844 C154.631642,181.682129 155.141407,181.022949 155.950001,181.022949 C156.736622,181.022949 157.263966,181.695312 157.263966,182.714844 C157.263966,183.73877 156.736622,184.406738 155.950001,184.406738 Z M161.438478,185.079102 C162.699709,185.079102 163.552248,184.169434 163.552248,182.714844 C163.552248,181.255859 162.699709,180.350586 161.438478,180.350586 C160.172853,180.350586 159.320314,181.255859 159.320314,182.714844 C159.320314,184.169434 160.172853,185.079102 161.438478,185.079102 Z M161.438478,184.406738 C160.629884,184.406738 160.098146,183.791504 160.098146,182.714844 C160.098146,181.638184 160.629884,181.022949 161.438478,181.022949 C162.247072,181.022949 162.774416,181.638184 162.774416,182.714844 C162.774416,183.791504 162.247072,184.406738 161.438478,184.406738 Z M169.022854,185.079102 C170.020412,185.079102 170.79385,184.490234 170.925686,183.69043 L170.174221,183.69043 C170.046779,184.121094 169.62051,184.415527 169.040432,184.415527 C168.218654,184.415527 167.704494,183.839844 167.704494,182.965332 L167.704494,182.921387 L170.982815,182.921387 L170.982815,182.631348 C170.982815,181.24707 170.222561,180.350586 168.987697,180.350586 C167.726467,180.350586 166.917873,181.312988 166.917873,182.732422 C166.917873,184.169434 167.713283,185.079102 169.022854,185.079102 Z M170.191799,182.32373 L167.708889,182.32373 C167.757229,181.563477 168.258205,181.01416 168.974514,181.01416 C169.695217,181.01416 170.174221,181.559082 170.191799,182.32373 Z M172.661233,179.616699 C172.929299,179.616699 173.140237,179.401367 173.140237,179.137695 C173.140237,178.869629 172.929299,178.658691 172.661233,178.658691 C172.397561,178.658691 172.182229,178.869629 172.182229,179.137695 C172.182229,179.401367 172.397561,179.616699 172.661233,179.616699 Z M173.043557,185 L173.043557,180.429688 L172.278909,180.429688 L172.278909,185 L173.043557,185 Z M176.123831,185.079102 C176.826956,185.079102 177.301565,184.784668 177.574026,184.257324 L177.591604,184.257324 L177.591604,185 L178.316702,185 L178.316702,180.429688 L177.552053,180.429688 L177.552053,183.114746 C177.552053,183.892578 177.103811,184.402344 176.361136,184.402344 C175.653616,184.402344 175.306448,184.002441 175.306448,183.259766 L175.306448,180.429688 L174.5418,180.429688 L174.5418,183.395996 C174.5418,184.433105 175.126272,185.079102 176.123831,185.079102 Z M181.418948,185.079102 C182.43848,185.079102 183.189944,184.516602 183.189944,183.721191 C183.189944,183.066406 182.85596,182.706055 181.933108,182.481934 L181.208011,182.306152 C180.698245,182.183105 180.465335,181.967773 180.465335,181.651367 C180.465335,181.251465 180.834476,180.974609 181.392581,180.974609 C181.955081,180.974609 182.306644,181.269043 182.363773,181.748047 L183.093265,181.748047 C183.062503,180.939453 182.394534,180.350586 181.392581,180.350586 C180.403812,180.350586 179.71387,180.908691 179.71387,181.690918 C179.71387,182.350098 180.131351,182.75 180.992679,182.956543 L181.717776,183.132324 C182.240726,183.259766 182.420901,183.44873 182.420901,183.77832 C182.420901,184.191406 182.038577,184.455078 181.418948,184.455078 C180.799319,184.455078 180.447757,184.20459 180.355472,183.681641 L179.590823,183.681641 C179.678714,184.538574 180.346683,185.079102 181.418948,185.079102 Z M185.233109,185 L185.233109,182.134766 C185.233109,181.501953 185.672562,181.027344 186.279007,181.027344 C186.845902,181.027344 187.215042,181.387695 187.215042,181.937012 L187.215042,185 L187.979691,185 L187.979691,182.095215 C187.979691,181.475586 188.40596,181.027344 189.012406,181.027344 C189.614456,181.027344 189.961624,181.396484 189.961624,182.020508 L189.961624,185 L190.726273,185 L190.726273,181.844727 C190.726273,180.939453 190.1418,180.350586 189.236527,180.350586 C188.594925,180.350586 188.058792,180.675781 187.80391,181.220703 L187.786331,181.220703 C187.588578,180.666992 187.127152,180.350586 186.503128,180.350586 C185.887894,180.350586 185.422074,180.675781 185.206742,181.15918 L185.189163,181.15918 L185.189163,180.429688 L184.46846,180.429688 L184.46846,185 L185.233109,185 Z M194.079008,185.079102 C195.340238,185.079102 196.192777,184.169434 196.192777,182.714844 C196.192777,181.255859 195.340238,180.350586 194.079008,180.350586 C192.813383,180.350586 191.960843,181.255859 191.960843,182.714844 C191.960843,184.169434 192.813383,185.079102 194.079008,185.079102 Z M194.079008,184.406738 C193.270414,184.406738 192.738675,183.791504 192.738675,182.714844 C192.738675,181.638184 193.270414,181.022949 194.079008,181.022949 C194.887601,181.022949 195.414945,181.638184 195.414945,182.714844 C195.414945,183.791504 194.887601,184.406738 194.079008,184.406738 Z M199.180766,185.079102 C199.839945,185.079102 200.362895,184.753906 200.657328,184.226562 L200.670512,184.226562 L200.670512,185 L201.400004,185 L201.400004,178.658691 L200.635355,178.658691 L200.635355,181.172363 L200.617777,181.172363 C200.345316,180.671387 199.817973,180.350586 199.163187,180.350586 C198.01182,180.350586 197.225199,181.282227 197.225199,182.714844 C197.225199,184.147461 198.016215,185.079102 199.180766,185.079102 Z M199.325785,184.406738 C198.517191,184.406738 198.007426,183.751953 198.007426,182.714844 C198.007426,181.682129 198.517191,181.022949 199.325785,181.022949 C200.112406,181.022949 200.63975,181.695312 200.63975,182.714844 C200.63975,183.73877 200.112406,184.406738 199.325785,184.406738 Z M206.664067,185.035156 C206.844243,185.035156 207.05518,185.021973 207.147465,185 L207.147465,184.358398 C207.094731,184.367188 206.91895,184.380371 206.831059,184.380371 C206.439946,184.380371 206.264165,184.191406 206.264165,183.773926 L206.264165,181.058105 L207.15186,181.058105 L207.15186,180.429688 L206.264165,180.429688 L206.264165,179.32666 L205.499516,179.32666 L205.499516,180.429688 L204.818364,180.429688 L204.818364,181.058105 L205.499516,181.058105 L205.499516,183.813477 C205.499516,184.692383 205.824712,185.035156 206.664067,185.035156 Z M210.201372,185.079102 C211.198931,185.079102 211.972368,184.490234 212.104204,183.69043 L211.352739,183.69043 C211.225298,184.121094 210.799028,184.415527 210.21895,184.415527 C209.397173,184.415527 208.883013,183.839844 208.883013,182.965332 L208.883013,182.921387 L212.161333,182.921387 L212.161333,182.631348 C212.161333,181.24707 211.401079,180.350586 210.166216,180.350586 C208.904985,180.350586 208.096392,181.312988 208.096392,182.732422 C208.096392,184.169434 208.891802,185.079102 210.201372,185.079102 Z M211.370317,182.32373 L208.887407,182.32373 C208.935747,181.563477 209.436724,181.01416 210.153032,181.01416 C210.873735,181.01416 211.352739,181.559082 211.370317,182.32373 Z M214.182525,185 L214.182525,182.134766 C214.182525,181.501953 214.621978,181.027344 215.228423,181.027344 C215.795318,181.027344 216.164458,181.387695 216.164458,181.937012 L216.164458,185 L216.929107,185 L216.929107,182.095215 C216.929107,181.475586 217.355376,181.027344 217.961822,181.027344 C218.563872,181.027344 218.91104,181.396484 218.91104,182.020508 L218.91104,185 L219.675689,185 L219.675689,181.844727 C219.675689,180.939453 219.091216,180.350586 218.185943,180.350586 C217.544341,180.350586 217.008208,180.675781 216.753325,181.220703 L216.735747,181.220703 C216.537993,180.666992 216.076568,180.350586 215.452544,180.350586 C214.83731,180.350586 214.371489,180.675781 214.156157,181.15918 L214.138579,181.15918 L214.138579,180.429688 L213.417876,180.429688 L213.417876,185 L214.182525,185 Z M221.899029,186.524902 L221.899029,184.257324 L221.916607,184.257324 C222.189068,184.758301 222.716412,185.079102 223.371197,185.079102 C224.522564,185.079102 225.309185,184.147461 225.309185,182.714844 C225.309185,181.282227 224.518169,180.350586 223.353619,180.350586 C222.690044,180.350586 222.158306,180.688965 221.877056,181.203125 L221.859478,181.203125 L221.859478,180.429688 L221.13438,180.429688 L221.13438,186.524902 L221.899029,186.524902 Z M223.204205,184.406738 C222.421978,184.406738 221.894634,183.734375 221.894634,182.714844 C221.894634,181.699707 222.421978,181.022949 223.204205,181.022949 C224.017193,181.022949 224.526959,181.682129 224.526959,182.714844 C224.526959,183.751953 224.017193,184.406738 223.204205,184.406738 Z M228.459771,185.079102 C229.721002,185.079102 230.573541,184.169434 230.573541,182.714844 C230.573541,181.255859 229.721002,180.350586 228.459771,180.350586 C227.194146,180.350586 226.341607,181.255859 226.341607,182.714844 C226.341607,184.169434 227.194146,185.079102 228.459771,185.079102 Z M228.459771,184.406738 C227.651178,184.406738 227.119439,183.791504 227.119439,182.714844 C227.119439,181.638184 227.651178,181.022949 228.459771,181.022949 C229.268365,181.022949 229.795709,181.638184 229.795709,182.714844 C229.795709,183.791504 229.268365,184.406738 228.459771,184.406738 Z M232.594733,185 L232.594733,182.152344 C232.594733,181.506348 232.981451,181.080078 233.574713,181.080078 C233.759283,181.080078 233.921881,181.102051 233.983404,181.124023 L233.983404,180.381348 C233.921881,180.372559 233.807623,180.350586 233.675787,180.350586 C233.139654,180.350586 232.717779,180.671387 232.568365,181.176758 L232.550787,181.176758 L232.550787,180.429688 L231.830084,180.429688 L231.830084,185 L232.594733,185 Z M136.918457,190.616699 C137.186523,190.616699 137.397461,190.401367 137.397461,190.137695 C137.397461,189.869629 137.186523,189.658691 136.918457,189.658691 C136.654785,189.658691 136.439453,189.869629 136.439453,190.137695 C136.439453,190.401367 136.654785,190.616699 136.918457,190.616699 Z M137.300781,196 L137.300781,191.429688 L136.536133,191.429688 L136.536133,196 L137.300781,196 Z M139.585645,196 L139.585645,193.310547 C139.585645,192.537109 140.05586,192.027344 140.776563,192.027344 C141.479688,192.027344 141.826856,192.431641 141.826856,193.169922 L141.826856,196 L142.591504,196 L142.591504,193.033691 C142.591504,191.996582 142.011426,191.350586 141.009473,191.350586 C140.301953,191.350586 139.81416,191.666992 139.559278,192.15918 L139.5417,192.15918 L139.5417,191.429688 L138.820996,191.429688 L138.820996,196 L139.585645,196 Z M145.93545,196.079102 C146.972559,196.079102 147.737208,195.4375 147.85586,194.527832 L147.104395,194.527832 C146.972559,195.077148 146.563868,195.406738 145.939844,195.406738 C145.148829,195.406738 144.603907,194.77832 144.603907,193.714844 C144.603907,192.677734 145.14004,192.022949 145.931055,192.022949 C146.603419,192.022949 146.990137,192.431641 147.100001,192.928223 L147.847071,192.928223 C147.750391,192.106445 147.069239,191.350586 145.926661,191.350586 C144.66543,191.350586 143.826075,192.273438 143.826075,193.714844 C143.826075,195.187012 144.669825,196.079102 145.93545,196.079102 Z M149.46836,190.616699 C149.736427,190.616699 149.947364,190.401367 149.947364,190.137695 C149.947364,189.869629 149.736427,189.658691 149.46836,189.658691 C149.204688,189.658691 148.989356,189.869629 148.989356,190.137695 C148.989356,190.401367 149.204688,190.616699 149.46836,190.616699 Z M149.850684,196 L149.850684,191.429688 L149.086036,191.429688 L149.086036,196 L149.850684,196 Z M153.102345,196.079102 C153.761525,196.079102 154.284474,195.753906 154.578907,195.226562 L154.592091,195.226562 L154.592091,196 L155.321583,196 L155.321583,189.658691 L154.556935,189.658691 L154.556935,192.172363 L154.539357,192.172363 C154.266896,191.671387 153.739552,191.350586 153.084767,191.350586 C151.9334,191.350586 151.146779,192.282227 151.146779,193.714844 C151.146779,195.147461 151.937794,196.079102 153.102345,196.079102 Z M153.247364,195.406738 C152.438771,195.406738 151.929005,194.751953 151.929005,193.714844 C151.929005,192.682129 152.438771,192.022949 153.247364,192.022949 C154.033986,192.022949 154.561329,192.695312 154.561329,193.714844 C154.561329,194.73877 154.033986,195.406738 153.247364,195.406738 Z M157.263673,190.616699 C157.53174,190.616699 157.742677,190.401367 157.742677,190.137695 C157.742677,189.869629 157.53174,189.658691 157.263673,189.658691 C157.000001,189.658691 156.784669,189.869629 156.784669,190.137695 C156.784669,190.401367 157.000001,190.616699 157.263673,190.616699 Z M157.645998,196 L157.645998,191.429688 L156.881349,191.429688 L156.881349,196 L157.645998,196 Z M160.897658,196.079102 C161.556838,196.079102 162.079787,195.753906 162.374221,195.226562 L162.387404,195.226562 L162.387404,196 L163.116896,196 L163.116896,189.658691 L162.352248,189.658691 L162.352248,192.172363 L162.33467,192.172363 C162.062209,191.671387 161.534865,191.350586 160.88008,191.350586 C159.728713,191.350586 158.942092,192.282227 158.942092,193.714844 C158.942092,195.147461 159.733107,196.079102 160.897658,196.079102 Z M161.042678,195.406738 C160.234084,195.406738 159.724318,194.751953 159.724318,193.714844 C159.724318,192.682129 160.234084,192.022949 161.042678,192.022949 C161.829299,192.022949 162.356642,192.695312 162.356642,193.714844 C162.356642,194.73877 161.829299,195.406738 161.042678,195.406738 Z M166.19717,196.079102 C166.900295,196.079102 167.374904,195.784668 167.647365,195.257324 L167.664944,195.257324 L167.664944,196 L168.390041,196 L168.390041,191.429688 L167.625393,191.429688 L167.625393,194.114746 C167.625393,194.892578 167.177151,195.402344 166.434475,195.402344 C165.726955,195.402344 165.379787,195.002441 165.379787,194.259766 L165.379787,191.429688 L164.615139,191.429688 L164.615139,194.395996 C164.615139,195.433105 165.199611,196.079102 166.19717,196.079102 Z M170.630959,196 L170.630959,193.310547 C170.630959,192.537109 171.101174,192.027344 171.821877,192.027344 C172.525002,192.027344 172.87217,192.431641 172.87217,193.169922 L172.87217,196 L173.636819,196 L173.636819,193.033691 C173.636819,191.996582 173.056741,191.350586 172.054788,191.350586 C171.347268,191.350586 170.859475,191.666992 170.604592,192.15918 L170.587014,192.15918 L170.587014,191.429688 L169.866311,191.429688 L169.866311,196 L170.630959,196 Z M176.506155,196.035156 C176.686331,196.035156 176.897268,196.021973 176.989553,196 L176.989553,195.358398 C176.936819,195.367188 176.761038,195.380371 176.673147,195.380371 C176.282034,195.380371 176.106253,195.191406 176.106253,194.773926 L176.106253,192.058105 L176.993948,192.058105 L176.993948,191.429688 L176.106253,191.429688 L176.106253,190.32666 L175.341604,190.32666 L175.341604,191.429688 L174.660452,191.429688 L174.660452,192.058105 L175.341604,192.058105 L175.341604,194.813477 C175.341604,195.692383 175.6668,196.035156 176.506155,196.035156 Z M182.187699,196.079102 C182.890824,196.079102 183.365433,195.784668 183.637894,195.257324 L183.655472,195.257324 L183.655472,196 L184.38057,196 L184.38057,191.429688 L183.615921,191.429688 L183.615921,194.114746 C183.615921,194.892578 183.167679,195.402344 182.425003,195.402344 C181.717484,195.402344 181.370316,195.002441 181.370316,194.259766 L181.370316,191.429688 L180.605667,191.429688 L180.605667,194.395996 C180.605667,195.433105 181.19014,196.079102 182.187699,196.079102 Z M187.267484,196.035156 C187.44766,196.035156 187.658597,196.021973 187.750883,196 L187.750883,195.358398 C187.698148,195.367188 187.522367,195.380371 187.434476,195.380371 C187.043363,195.380371 186.867582,195.191406 186.867582,194.773926 L186.867582,192.058105 L187.755277,192.058105 L187.755277,191.429688 L186.867582,191.429688 L186.867582,190.32666 L186.102933,190.32666 L186.102933,191.429688 L185.421781,191.429688 L185.421781,192.058105 L186.102933,192.058105 L186.102933,194.813477 C186.102933,195.692383 186.428129,196.035156 187.267484,196.035156 Z M192.193168,196 L192.193168,189.658691 L191.42852,189.658691 L191.42852,196 L192.193168,196 Z M195.049321,196.079102 C195.664555,196.079102 196.244633,195.736328 196.517094,195.213379 L196.534672,195.213379 L196.534672,196 L197.25977,196 L197.25977,192.840332 C197.25977,191.930664 196.583012,191.350586 195.510747,191.350586 C194.429692,191.350586 193.752934,191.957031 193.7002,192.748047 L194.438481,192.748047 C194.535161,192.299805 194.904301,192.022949 195.493169,192.022949 C196.125981,192.022949 196.495122,192.356934 196.495122,192.915039 L196.495122,193.297363 L195.185551,193.37207 C194.130864,193.433594 193.528813,193.925781 193.528813,194.708008 C193.528813,195.529785 194.139653,196.079102 195.049321,196.079102 Z M195.220708,195.428711 C194.671391,195.428711 194.306645,195.143066 194.306645,194.708008 C194.306645,194.277344 194.658208,194.004883 195.273442,193.965332 L196.495122,193.890625 L196.495122,194.26416 C196.495122,194.92334 195.941411,195.428711 195.220708,195.428711 Z M200.990434,196.079102 C202.15938,196.079102 202.932817,195.151855 202.932817,193.714844 C202.932817,192.282227 202.154985,191.350586 201.003618,191.350586 C200.357622,191.350586 199.825884,191.671387 199.540239,192.194336 L199.522661,192.194336 L199.522661,189.658691 L198.758013,189.658691 L198.758013,196 L199.487505,196 L199.487505,195.226562 L199.505083,195.226562 C199.799517,195.753906 200.322466,196.079102 200.990434,196.079102 Z M200.84102,195.406738 C200.067583,195.406738 199.518267,194.734375 199.518267,193.714844 C199.518267,192.699707 200.067583,192.022949 200.84102,192.022949 C201.649614,192.022949 202.150591,192.677734 202.150591,193.714844 C202.150591,194.760742 201.649614,195.406738 200.84102,195.406738 Z M206.087798,196.079102 C207.349029,196.079102 208.201568,195.169434 208.201568,193.714844 C208.201568,192.255859 207.349029,191.350586 206.087798,191.350586 C204.822173,191.350586 203.969634,192.255859 203.969634,193.714844 C203.969634,195.169434 204.822173,196.079102 206.087798,196.079102 Z M206.087798,195.406738 C205.279204,195.406738 204.747466,194.791504 204.747466,193.714844 C204.747466,192.638184 205.279204,192.022949 206.087798,192.022949 C206.896392,192.022949 207.423736,192.638184 207.423736,193.714844 C207.423736,194.791504 206.896392,195.406738 206.087798,195.406738 Z M210.222759,196 L210.222759,193.152344 C210.222759,192.506348 210.609478,192.080078 211.20274,192.080078 C211.38731,192.080078 211.549908,192.102051 211.611431,192.124023 L211.611431,191.381348 C211.549908,191.372559 211.43565,191.350586 211.303814,191.350586 C210.767681,191.350586 210.345806,191.671387 210.196392,192.176758 L210.178814,192.176758 L210.178814,191.429688 L209.458111,191.429688 L209.458111,196 L210.222759,196 Z M214.379693,196.079102 C215.377252,196.079102 216.150689,195.490234 216.282525,194.69043 L215.53106,194.69043 C215.403619,195.121094 214.977349,195.415527 214.397271,195.415527 C213.575494,195.415527 213.061334,194.839844 213.061334,193.965332 L213.061334,193.921387 L216.339654,193.921387 L216.339654,193.631348 C216.339654,192.24707 215.5794,191.350586 214.344537,191.350586 C213.083306,191.350586 212.274713,192.312988 212.274713,193.732422 C212.274713,195.169434 213.070123,196.079102 214.379693,196.079102 Z M215.548639,193.32373 L213.065728,193.32373 C213.114068,192.563477 213.615045,192.01416 214.331353,192.01416 C215.052056,192.01416 215.53106,192.559082 215.548639,193.32373 Z M221.81026,196.079102 C222.807819,196.079102 223.581256,195.490234 223.713092,194.69043 L222.961627,194.69043 C222.834186,195.121094 222.407916,195.415527 221.827838,195.415527 C221.006061,195.415527 220.491901,194.839844 220.491901,193.965332 L220.491901,193.921387 L223.770221,193.921387 L223.770221,193.631348 C223.770221,192.24707 223.009967,191.350586 221.775104,191.350586 C220.513873,191.350586 219.70528,192.312988 219.70528,193.732422 C219.70528,195.169434 220.50069,196.079102 221.81026,196.079102 Z M222.979206,193.32373 L220.496295,193.32373 C220.544635,192.563477 221.045612,192.01416 221.76192,192.01416 C222.482623,192.01416 222.961627,192.559082 222.979206,193.32373 Z M226.437409,196.035156 C226.617585,196.035156 226.828522,196.021973 226.920807,196 L226.920807,195.358398 C226.868073,195.367188 226.692292,195.380371 226.604401,195.380371 C226.213288,195.380371 226.037507,195.191406 226.037507,194.773926 L226.037507,192.058105 L226.925202,192.058105 L226.925202,191.429688 L226.037507,191.429688 L226.037507,190.32666 L225.272858,190.32666 L225.272858,191.429688 L224.591706,191.429688 L224.591706,192.058105 L225.272858,192.058105 L225.272858,194.813477 C225.272858,195.692383 225.598053,196.035156 226.437409,196.035156 Z M232.290339,196.079102 C232.949519,196.079102 233.472468,195.753906 233.766902,195.226562 L233.780085,195.226562 L233.780085,196 L234.509578,196 L234.509578,189.658691 L233.744929,189.658691 L233.744929,192.172363 L233.727351,192.172363 C233.45489,191.671387 232.927546,191.350586 232.272761,191.350586 C231.121394,191.350586 230.334773,192.282227 230.334773,193.714844 C230.334773,195.147461 231.125788,196.079102 232.290339,196.079102 Z M232.435359,195.406738 C231.626765,195.406738 231.116999,194.751953 231.116999,193.714844 C231.116999,192.682129 231.626765,192.022949 232.435359,192.022949 C233.22198,192.022949 233.749324,192.695312 233.749324,193.714844 C233.749324,194.73877 233.22198,195.406738 232.435359,195.406738 Z M237.923836,196.079102 C239.185066,196.079102 240.037605,195.169434 240.037605,193.714844 C240.037605,192.255859 239.185066,191.350586 237.923836,191.350586 C236.658211,191.350586 235.805672,192.255859 235.805672,193.714844 C235.805672,195.169434 236.658211,196.079102 237.923836,196.079102 Z M237.923836,195.406738 C237.115242,195.406738 236.583504,194.791504 236.583504,193.714844 C236.583504,192.638184 237.115242,192.022949 237.923836,192.022949 C238.732429,192.022949 239.259773,192.638184 239.259773,193.714844 C239.259773,194.791504 238.732429,195.406738 237.923836,195.406738 Z M242.098348,196 L242.098348,189.658691 L241.333699,189.658691 L241.333699,196 L242.098348,196 Z M245.512606,196.079102 C246.773836,196.079102 247.626375,195.169434 247.626375,193.714844 C247.626375,192.255859 246.773836,191.350586 245.512606,191.350586 C244.246981,191.350586 243.394442,192.255859 243.394442,193.714844 C243.394442,195.169434 244.246981,196.079102 245.512606,196.079102 Z M245.512606,195.406738 C244.704012,195.406738 244.172274,194.791504 244.172274,193.714844 C244.172274,192.638184 244.704012,192.022949 245.512606,192.022949 C246.3212,192.022949 246.848543,192.638184 246.848543,193.714844 C246.848543,194.791504 246.3212,195.406738 245.512606,195.406738 Z M249.647567,196 L249.647567,193.152344 C249.647567,192.506348 250.034286,192.080078 250.627547,192.080078 C250.812118,192.080078 250.974715,192.102051 251.036239,192.124023 L251.036239,191.381348 C250.974715,191.372559 250.860458,191.350586 250.728622,191.350586 C250.192489,191.350586 249.770614,191.671387 249.6212,192.176758 L249.603622,192.176758 L249.603622,191.429688 L248.882919,191.429688 L248.882919,196 L249.647567,196 Z M253.804501,196.079102 C254.802059,196.079102 255.575497,195.490234 255.707333,194.69043 L254.955868,194.69043 C254.828427,195.121094 254.402157,195.415527 253.822079,195.415527 C253.000302,195.415527 252.486142,194.839844 252.486142,193.965332 L252.486142,193.921387 L255.764462,193.921387 L255.764462,193.631348 C255.764462,192.24707 255.004208,191.350586 253.769345,191.350586 C252.508114,191.350586 251.69952,192.312988 251.69952,193.732422 C251.69952,195.169434 252.494931,196.079102 253.804501,196.079102 Z M254.973446,193.32373 L252.490536,193.32373 C252.538876,192.563477 253.039852,192.01416 253.756161,192.01416 C254.476864,192.01416 254.955868,192.559082 254.973446,193.32373 Z M137.26123,207 L137.26123,204.134766 C137.26123,203.501953 137.700684,203.027344 138.307129,203.027344 C138.874023,203.027344 139.243164,203.387695 139.243164,203.937012 L139.243164,207 L140.007812,207 L140.007812,204.095215 C140.007812,203.475586 140.434082,203.027344 141.040527,203.027344 C141.642578,203.027344 141.989746,203.396484 141.989746,204.020508 L141.989746,207 L142.754395,207 L142.754395,203.844727 C142.754395,202.939453 142.169922,202.350586 141.264648,202.350586 C140.623047,202.350586 140.086914,202.675781 139.832031,203.220703 L139.814453,203.220703 C139.616699,202.666992 139.155273,202.350586 138.53125,202.350586 C137.916016,202.350586 137.450195,202.675781 137.234863,203.15918 L137.217285,203.15918 L137.217285,202.429688 L136.496582,202.429688 L136.496582,207 L137.26123,207 Z M145.549024,207.079102 C146.164258,207.079102 146.744336,206.736328 147.016797,206.213379 L147.034375,206.213379 L147.034375,207 L147.759473,207 L147.759473,203.840332 C147.759473,202.930664 147.082715,202.350586 146.01045,202.350586 C144.929395,202.350586 144.252637,202.957031 144.199903,203.748047 L144.938184,203.748047 C145.034864,203.299805 145.404004,203.022949 145.992871,203.022949 C146.625684,203.022949 146.994825,203.356934 146.994825,203.915039 L146.994825,204.297363 L145.685254,204.37207 C144.630567,204.433594 144.028516,204.925781 144.028516,205.708008 C144.028516,206.529785 144.639356,207.079102 145.549024,207.079102 Z M145.72041,206.428711 C145.171094,206.428711 144.806348,206.143066 144.806348,205.708008 C144.806348,205.277344 145.15791,205.004883 145.773145,204.965332 L146.994825,204.890625 L146.994825,205.26416 C146.994825,205.92334 146.441114,206.428711 145.72041,206.428711 Z M151.103419,208.722656 C152.364649,208.722656 153.168848,207.997559 153.168848,206.907715 L153.168848,202.429688 L152.439356,202.429688 L152.439356,203.19873 L152.426172,203.19873 C152.12295,202.666992 151.586817,202.350586 150.940821,202.350586 C149.758692,202.350586 148.994044,203.264648 148.994044,204.697266 C148.994044,206.116699 149.758692,207.035156 150.923243,207.035156 C151.564844,207.035156 152.105372,206.709961 152.386622,206.213379 L152.4042,206.213379 L152.4042,206.934082 C152.4042,207.615234 151.925196,208.072266 151.13418,208.072266 C150.562891,208.072266 150.110255,207.79541 149.96084,207.37793 L149.174219,207.37793 C149.301661,208.155762 150.097071,208.722656 151.103419,208.722656 Z M151.077051,206.362793 C150.29043,206.362793 149.77627,205.721191 149.77627,204.697266 C149.77627,203.67334 150.29043,203.022949 151.077051,203.022949 C151.872462,203.022949 152.4042,203.690918 152.4042,204.697266 C152.4042,205.703613 151.872462,206.362793 151.077051,206.362793 Z M155.414161,207 L155.414161,204.310547 C155.414161,203.537109 155.884376,203.027344 156.605079,203.027344 C157.308204,203.027344 157.655372,203.431641 157.655372,204.169922 L157.655372,207 L158.42002,207 L158.42002,204.033691 C158.42002,202.996582 157.839942,202.350586 156.837989,202.350586 C156.13047,202.350586 155.642677,202.666992 155.387794,203.15918 L155.370216,203.15918 L155.370216,202.429688 L154.649513,202.429688 L154.649513,207 L155.414161,207 Z M161.21465,207.079102 C161.829884,207.079102 162.409962,206.736328 162.682423,206.213379 L162.700001,206.213379 L162.700001,207 L163.425099,207 L163.425099,203.840332 C163.425099,202.930664 162.748341,202.350586 161.676075,202.350586 C160.595021,202.350586 159.918263,202.957031 159.865529,203.748047 L160.60381,203.748047 C160.700489,203.299805 161.06963,203.022949 161.658497,203.022949 C162.29131,203.022949 162.66045,203.356934 162.66045,203.915039 L162.66045,204.297363 L161.35088,204.37207 C160.296193,204.433594 159.694142,204.925781 159.694142,205.708008 C159.694142,206.529785 160.304982,207.079102 161.21465,207.079102 Z M161.386036,206.428711 C160.83672,206.428711 160.471974,206.143066 160.471974,205.708008 C160.471974,205.277344 160.823536,205.004883 161.438771,204.965332 L162.66045,204.890625 L162.66045,205.26416 C162.66045,205.92334 162.106739,206.428711 161.386036,206.428711 Z M168.552931,207.079102 C169.168166,207.079102 169.748244,206.736328 170.020705,206.213379 L170.038283,206.213379 L170.038283,207 L170.763381,207 L170.763381,203.840332 C170.763381,202.930664 170.086623,202.350586 169.014357,202.350586 C167.933303,202.350586 167.256545,202.957031 167.20381,203.748047 L167.942092,203.748047 C168.038771,203.299805 168.407912,203.022949 168.996779,203.022949 C169.629592,203.022949 169.998732,203.356934 169.998732,203.915039 L169.998732,204.297363 L168.689162,204.37207 C167.634474,204.433594 167.032424,204.925781 167.032424,205.708008 C167.032424,206.529785 167.643264,207.079102 168.552931,207.079102 Z M168.724318,206.428711 C168.175002,206.428711 167.810256,206.143066 167.810256,205.708008 C167.810256,205.277344 168.161818,205.004883 168.777053,204.965332 L169.998732,204.890625 L169.998732,205.26416 C169.998732,205.92334 169.445021,206.428711 168.724318,206.428711 Z M173.026272,207 L173.026272,200.658691 L172.261623,200.658691 L172.261623,207 L173.026272,207 Z M174.968362,201.616699 C175.236428,201.616699 175.447366,201.401367 175.447366,201.137695 C175.447366,200.869629 175.236428,200.658691 174.968362,200.658691 C174.70469,200.658691 174.489358,200.869629 174.489358,201.137695 C174.489358,201.401367 174.70469,201.616699 174.968362,201.616699 Z M175.350686,207 L175.350686,202.429688 L174.586038,202.429688 L174.586038,207 L175.350686,207 Z M180.821585,208.524902 L180.821585,202.429688 L180.092093,202.429688 L180.092093,203.203125 L180.074514,203.203125 C179.780081,202.675781 179.257132,202.350586 178.593557,202.350586 C177.420218,202.350586 176.64678,203.277832 176.64678,204.714844 C176.64678,206.147461 177.420218,207.079102 178.575979,207.079102 C179.221975,207.079102 179.753714,206.758301 180.039358,206.235352 L180.056936,206.235352 L180.056936,208.524902 L180.821585,208.524902 Z M178.729788,206.406738 C177.929983,206.406738 177.429007,205.756348 177.429007,204.714844 C177.429007,203.668945 177.929983,203.022949 178.729788,203.022949 C179.512014,203.022949 180.056936,203.695312 180.056936,204.714844 C180.056936,205.734375 179.512014,206.406738 178.729788,206.406738 Z M183.862308,207.079102 C184.565433,207.079102 185.040042,206.784668 185.312503,206.257324 L185.330081,206.257324 L185.330081,207 L186.055179,207 L186.055179,202.429688 L185.29053,202.429688 L185.29053,205.114746 C185.29053,205.892578 184.842288,206.402344 184.099612,206.402344 C183.392093,206.402344 183.044925,206.002441 183.044925,205.259766 L183.044925,202.429688 L182.280276,202.429688 L182.280276,205.395996 C182.280276,206.433105 182.864749,207.079102 183.862308,207.079102 Z M188.867386,207.079102 C189.48262,207.079102 190.062699,206.736328 190.33516,206.213379 L190.352738,206.213379 L190.352738,207 L191.077835,207 L191.077835,203.840332 C191.077835,202.930664 190.401078,202.350586 189.328812,202.350586 C188.247757,202.350586 187.570999,202.957031 187.518265,203.748047 L188.256546,203.748047 C188.353226,203.299805 188.722367,203.022949 189.311234,203.022949 C189.944046,203.022949 190.313187,203.356934 190.313187,203.915039 L190.313187,204.297363 L189.003617,204.37207 C187.948929,204.433594 187.346878,204.925781 187.346878,205.708008 C187.346878,206.529785 187.957718,207.079102 188.867386,207.079102 Z M189.038773,206.428711 C188.489456,206.428711 188.12471,206.143066 188.12471,205.708008 C188.12471,205.277344 188.476273,205.004883 189.091507,204.965332 L190.313187,204.890625 L190.313187,205.26416 C190.313187,205.92334 189.759476,206.428711 189.038773,206.428711 Z M193.182523,207.043945 C193.463773,207.043945 193.6835,206.824219 193.6835,206.542969 C193.6835,206.261719 193.463773,206.041992 193.182523,206.041992 C192.901273,206.041992 192.681547,206.261719 192.681547,206.542969 C192.681547,206.824219 192.901273,207.043945 193.182523,207.043945 Z M199.839653,207.105469 C201.412895,207.105469 202.357719,206.129883 202.357719,204.776367 L202.357719,200.658691 L201.566703,200.658691 L201.566703,204.723633 C201.566703,205.681641 200.938285,206.375977 199.839653,206.375977 C198.74102,206.375977 198.112602,205.681641 198.112602,204.723633 L198.112602,200.658691 L197.321586,200.658691 L197.321586,204.776367 C197.321586,206.129883 198.26641,207.105469 199.839653,207.105469 Z M205.36768,207.035156 C205.547856,207.035156 205.758794,207.021973 205.851079,207 L205.851079,206.358398 C205.798344,206.367188 205.622563,206.380371 205.534672,206.380371 C205.143559,206.380371 204.967778,206.191406 204.967778,205.773926 L204.967778,203.058105 L205.855473,203.058105 L205.855473,202.429688 L204.967778,202.429688 L204.967778,201.32666 L204.203129,201.32666 L204.203129,202.429688 L203.521977,202.429688 L203.521977,203.058105 L204.203129,203.058105 L204.203129,205.813477 C204.203129,206.692383 204.528325,207.035156 205.36768,207.035156 Z M211.370025,207.079102 C212.367583,207.079102 213.141021,206.490234 213.272857,205.69043 L212.521392,205.69043 C212.39395,206.121094 211.967681,206.415527 211.387603,206.415527 C210.565825,206.415527 210.051665,205.839844 210.051665,204.965332 L210.051665,204.921387 L213.329986,204.921387 L213.329986,204.631348 C213.329986,203.24707 212.569732,202.350586 211.334868,202.350586 C210.073638,202.350586 209.265044,203.312988 209.265044,204.732422 C209.265044,206.169434 210.060454,207.079102 211.370025,207.079102 Z M212.53897,204.32373 L210.05606,204.32373 C210.1044,203.563477 210.605376,203.01416 211.321685,203.01416 C212.042388,203.01416 212.521392,203.559082 212.53897,204.32373 Z M215.351177,207 L215.351177,204.310547 C215.351177,203.537109 215.821392,203.027344 216.542095,203.027344 C217.24522,203.027344 217.592388,203.431641 217.592388,204.169922 L217.592388,207 L218.357037,207 L218.357037,204.033691 C218.357037,202.996582 217.776959,202.350586 216.775005,202.350586 C216.067486,202.350586 215.579693,202.666992 215.32481,203.15918 L215.307232,203.15918 L215.307232,202.429688 L214.586529,202.429688 L214.586529,207 L215.351177,207 Z M220.237603,201.616699 C220.50567,201.616699 220.716607,201.401367 220.716607,201.137695 C220.716607,200.869629 220.50567,200.658691 220.237603,200.658691 C219.973931,200.658691 219.758599,200.869629 219.758599,201.137695 C219.758599,201.401367 219.973931,201.616699 220.237603,201.616699 Z M220.619928,207 L220.619928,202.429688 L219.855279,202.429688 L219.855279,207 L220.619928,207 Z M222.904791,207 L222.904791,204.134766 C222.904791,203.501953 223.344244,203.027344 223.95069,203.027344 C224.517584,203.027344 224.886725,203.387695 224.886725,203.937012 L224.886725,207 L225.651373,207 L225.651373,204.095215 C225.651373,203.475586 226.077643,203.027344 226.684088,203.027344 C227.286139,203.027344 227.633307,203.396484 227.633307,204.020508 L227.633307,207 L228.397955,207 L228.397955,203.844727 C228.397955,202.939453 227.813483,202.350586 226.908209,202.350586 C226.266608,202.350586 225.730475,202.675781 225.475592,203.220703 L225.458014,203.220703 C225.26026,202.666992 224.798834,202.350586 224.174811,202.350586 C223.559576,202.350586 223.093756,202.675781 222.878424,203.15918 L222.860846,203.15918 L222.860846,202.429688 L222.140143,202.429688 L222.140143,207 L222.904791,207 Z M233.525788,207.079102 C234.141022,207.079102 234.7211,206.736328 234.993561,206.213379 L235.011139,206.213379 L235.011139,207 L235.736237,207 L235.736237,203.840332 C235.736237,202.930664 235.059479,202.350586 233.987214,202.350586 C232.906159,202.350586 232.229401,202.957031 232.176667,203.748047 L232.914948,203.748047 C233.011628,203.299805 233.380768,203.022949 233.969636,203.022949 C234.602448,203.022949 234.971589,203.356934 234.971589,203.915039 L234.971589,204.297363 L233.662018,204.37207 C232.607331,204.433594 232.00528,204.925781 232.00528,205.708008 C232.00528,206.529785 232.61612,207.079102 233.525788,207.079102 Z M233.697175,206.428711 C233.147858,206.428711 232.783112,206.143066 232.783112,205.708008 C232.783112,205.277344 233.134675,205.004883 233.749909,204.965332 L234.971589,204.890625 L234.971589,205.26416 C234.971589,205.92334 234.417878,206.428711 233.697175,206.428711 Z M238.926374,207.079102 C239.585554,207.079102 240.108503,206.753906 240.402937,206.226562 L240.41612,206.226562 L240.41612,207 L241.145612,207 L241.145612,200.658691 L240.380964,200.658691 L240.380964,203.172363 L240.363386,203.172363 C240.090925,202.671387 239.563581,202.350586 238.908796,202.350586 C237.757429,202.350586 236.970808,203.282227 236.970808,204.714844 C236.970808,206.147461 237.761823,207.079102 238.926374,207.079102 Z M239.071394,206.406738 C238.2628,206.406738 237.753034,205.751953 237.753034,204.714844 C237.753034,203.682129 238.2628,203.022949 239.071394,203.022949 C239.858015,203.022949 240.385358,203.695312 240.385358,204.714844 C240.385358,205.73877 239.858015,206.406738 239.071394,206.406738 Z" id="Loremipsumdolorsitamet,consecteturadipiscingelit,seddoeiusmodtemporincididuntutlaboreetdoloremagnaaliqua.Utenimad" fill="#535353" fill-rule="nonzero"></path>
                <path d="M24.6318359,188 L24.6318359,183.720703 L29.4306641,183.720703 L29.4306641,188 L31.1875,188 L31.1875,178.135742 L29.4306641,178.135742 L29.4306641,182.237305 L24.6318359,182.237305 L24.6318359,178.135742 L22.8681641,178.135742 L22.8681641,188 L24.6318359,188 Z M36.6968104,188.143555 C38.4126307,188.143555 39.6841151,187.200195 39.9028651,185.833008 L38.3100916,185.833008 C38.1255213,186.43457 37.5239588,186.831055 36.7309901,186.831055 C35.6167322,186.831055 34.9057947,186.051758 34.9057947,184.889648 L34.9057947,184.787109 L39.9712244,184.787109 L39.9712244,184.233398 C39.9712244,182.032227 38.6860682,180.603516 36.628451,180.603516 C34.5366541,180.603516 33.2104822,182.114258 33.2104822,184.404297 C33.2104822,186.714844 34.5229822,188.143555 36.6968104,188.143555 Z M38.3032557,183.666016 L34.9194666,183.666016 C34.987826,182.654297 35.6782557,181.922852 36.6352869,181.922852 C37.612826,181.922852 38.269076,182.640625 38.3032557,183.666016 Z M43.9561207,188.116211 C44.8858082,188.116211 45.7949879,187.630859 46.2119801,186.844727 L46.2461598,186.844727 L46.2461598,188 L47.8867848,188 L47.8867848,183.009766 C47.8867848,181.553711 46.7178395,180.603516 44.9199879,180.603516 C43.0742848,180.603516 41.9190114,181.574219 41.843816,182.927734 L43.4229176,182.927734 C43.5322926,182.326172 44.0449879,181.936523 44.8516285,181.936523 C45.6924489,181.936523 46.2051442,182.374023 46.2051442,183.132812 L46.2051442,183.652344 L44.2910817,183.761719 C42.5274098,183.871094 41.5361989,184.643555 41.5361989,185.928711 C41.5361989,187.234375 42.5547535,188.116211 43.9561207,188.116211 Z M44.468816,186.831055 C43.7305348,186.831055 43.2383473,186.455078 43.2383473,185.860352 C43.2383473,185.286133 43.710027,184.916992 44.5303395,184.862305 L46.2051442,184.759766 L46.2051442,185.313477 C46.2051442,186.188477 45.4326832,186.831055 44.468816,186.831055 Z M52.7193373,188.116211 C53.7789077,188.116211 54.612892,187.576172 55.0093764,186.762695 L55.0367202,186.762695 L55.0367202,188 L56.7046889,188 L56.7046889,178.135742 L55.0025405,178.135742 L55.0025405,181.970703 L54.9615248,181.970703 C54.5787123,181.170898 53.7583998,180.630859 52.7193373,180.630859 C50.894142,180.630859 49.7115248,182.080078 49.7115248,184.370117 C49.7115248,186.673828 50.894142,188.116211 52.7193373,188.116211 Z M53.2320327,186.72168 C52.1314467,186.72168 51.4546889,185.819336 51.4546889,184.376953 C51.4546889,182.941406 52.1382827,182.032227 53.2320327,182.032227 C54.3052748,182.032227 55.0093764,182.955078 55.0093764,184.376953 C55.0093764,185.8125 54.3052748,186.72168 53.2320327,186.72168 Z M59.7804055,179.660156 C60.2999368,179.660156 60.710093,179.243164 60.710093,178.737305 C60.710093,178.224609 60.2999368,177.814453 59.7804055,177.814453 C59.2608743,177.814453 58.8438821,178.224609 58.8438821,178.737305 C58.8438821,179.243164 59.2608743,179.660156 59.7804055,179.660156 Z M60.6348977,188 L60.6348977,180.753906 L58.9327493,180.753906 L58.9327493,188 L60.6348977,188 Z M64.5240909,188 L64.5240909,183.802734 C64.5240909,182.763672 65.1461612,182.05957 66.1237003,182.05957 C67.0944034,182.05957 67.572919,182.633789 67.572919,183.65918 L67.572919,188 L69.2750674,188 L69.2750674,183.317383 C69.2750674,181.642578 68.3658878,180.617188 66.7662784,180.617188 C65.6520206,180.617188 64.8795596,181.136719 64.4899112,181.998047 L64.4557315,181.998047 L64.4557315,180.753906 L62.8219424,180.753906 L62.8219424,188 L64.5240909,188 Z M74.5861356,190.734375 C76.6984403,190.734375 78.0861356,189.613281 78.0861356,187.883789 L78.0861356,180.753906 L76.4181669,180.753906 L76.4181669,181.998047 L76.3908231,181.998047 C75.9738309,181.164062 75.1398466,180.630859 74.10762,180.630859 C72.2550809,180.630859 71.0929716,182.05957 71.0929716,184.349609 C71.0929716,186.605469 72.2824247,188.006836 74.0734403,188.006836 C75.1125028,188.006836 75.966995,187.487305 76.3429716,186.708008 L76.3839872,186.708008 L76.3839872,187.931641 C76.3839872,188.854492 75.748245,189.476562 74.6408231,189.476562 C73.8341825,189.476562 73.2121122,189.100586 73.0275419,188.546875 L71.3390653,188.546875 C71.5099637,189.818359 72.79512,190.734375 74.5861356,190.734375 Z M74.5929716,186.65332 C73.5197294,186.65332 72.8361356,185.791992 72.8361356,184.356445 C72.8361356,182.93457 73.5197294,182.032227 74.5929716,182.032227 C75.6798856,182.032227 76.3839872,182.948242 76.3839872,184.356445 C76.3839872,185.771484 75.6798856,186.65332 74.5929716,186.65332 Z M90.7590532,188 L90.7590532,186.557617 L86.1584673,186.557617 L86.1584673,186.523438 L88.3322954,184.390625 C90.0549517,182.695312 90.6086626,181.929688 90.6086626,180.760742 C90.6086626,179.174805 89.2688188,177.9375 87.2590532,177.9375 C85.208272,177.9375 83.7317095,179.243164 83.7317095,181.082031 L85.3860063,181.082031 C85.3860063,180.077148 86.192647,179.352539 87.2590532,179.352539 C88.2365923,179.352539 88.8860063,180.008789 88.8860063,180.870117 C88.8860063,181.608398 88.598897,182.100586 87.3137407,183.365234 L83.8274126,186.796875 L83.8274126,188 L90.7590532,188 Z" id="Heading2" fill="#000000" fill-rule="nonzero"></path>
                <path d="M24.0917969,208 L24.0917969,204.255859 L28.4335938,204.255859 L28.4335938,208 L29.7460938,208 L29.7460938,199.544922 L28.4335938,199.544922 L28.4335938,203.119141 L24.0917969,203.119141 L24.0917969,199.544922 L22.7792969,199.544922 L22.7792969,208 L24.0917969,208 Z M34.4273442,208.117188 C35.8394535,208.117188 36.9058598,207.314453 37.081641,206.189453 L35.8804692,206.189453 C35.7105473,206.728516 35.1773442,207.091797 34.456641,207.091797 C33.4429692,207.091797 32.7984379,206.382812 32.7984379,205.310547 L32.7984379,205.234375 L37.1519535,205.234375 L37.1519535,204.800781 C37.1519535,202.931641 36.0855473,201.724609 34.3746098,201.724609 C32.6343754,201.724609 31.5210942,203.013672 31.5210942,204.947266 C31.5210942,206.892578 32.6167973,208.117188 34.4273442,208.117188 Z M35.8863285,204.349609 L32.8042973,204.349609 C32.8687504,203.417969 33.4898442,202.744141 34.3746098,202.744141 C35.2593754,202.744141 35.8570317,203.40625 35.8863285,204.349609 Z M40.585157,208.105469 C41.3937508,208.105469 42.1730477,207.671875 42.5304695,206.986328 L42.5597664,206.986328 L42.5597664,208 L43.772657,208 L43.772657,203.751953 C43.772657,202.515625 42.8175789,201.724609 41.3234383,201.724609 C39.8000008,201.724609 38.850782,202.544922 38.7804695,203.658203 L39.975782,203.658203 C40.0871102,203.107422 40.5441414,202.755859 41.2765633,202.755859 C42.0500008,202.755859 42.5128914,203.166016 42.5128914,203.851562 L42.5128914,204.326172 L40.8253914,204.425781 C39.3605477,204.507812 38.5343758,205.169922 38.5343758,206.248047 C38.5343758,207.355469 39.3781258,208.105469 40.585157,208.105469 Z M40.9367195,207.103516 C40.257032,207.103516 39.8117195,206.751953 39.8117195,206.212891 C39.8117195,205.685547 40.2394539,205.351562 40.9953133,205.298828 L42.5128914,205.205078 L42.5128914,205.691406 C42.5128914,206.494141 41.8214852,207.103516 40.9367195,207.103516 Z M47.96172,208.105469 C48.8582043,208.105469 49.5613293,207.654297 49.9246106,206.951172 L49.9480481,206.951172 L49.9480481,208 L51.1785168,208 L51.1785168,199.544922 L49.9070325,199.544922 L49.9070325,202.861328 L49.883595,202.861328 C49.5378918,202.181641 48.8347668,201.736328 47.9500012,201.736328 C46.4031262,201.736328 45.3718762,202.972656 45.3718762,204.917969 C45.3718762,206.863281 46.4031262,208.105469 47.96172,208.105469 Z M48.2957043,207.033203 C47.2937512,207.033203 46.6667981,206.21875 46.6667981,204.917969 C46.6667981,203.623047 47.2937512,202.802734 48.2957043,202.802734 C49.2683606,202.802734 49.9187512,203.640625 49.9187512,204.917969 C49.9187512,206.207031 49.2683606,207.033203 48.2957043,207.033203 Z M53.7972672,200.839844 C54.2015641,200.839844 54.5238297,200.511719 54.5238297,200.113281 C54.5238297,199.708984 54.2015641,199.386719 53.7972672,199.386719 C53.3929703,199.386719 53.0648453,199.708984 53.0648453,200.113281 C53.0648453,200.511719 53.3929703,200.839844 53.7972672,200.839844 Z M54.4300797,208 L54.4300797,201.835938 L53.1644547,201.835938 L53.1644547,208 L54.4300797,208 Z M57.640627,208 L57.640627,204.408203 C57.640627,203.453125 58.2148457,202.820312 59.1054707,202.820312 C59.984377,202.820312 60.4179707,203.330078 60.4179707,204.255859 L60.4179707,208 L61.6894551,208 L61.6894551,204.009766 C61.6894551,202.597656 60.9101582,201.730469 59.5507832,201.730469 C58.6015645,201.730469 57.9453145,202.164062 57.6113301,202.867188 L57.5820332,202.867188 L57.5820332,201.835938 L56.375002,201.835938 L56.375002,208 L57.640627,208 Z M66.1949243,210.320312 C67.9527368,210.320312 69.0894555,209.359375 69.0894555,207.888672 L69.0894555,201.835938 L67.8589868,201.835938 L67.8589868,202.890625 L67.8355493,202.890625 C67.4605493,202.175781 66.7457055,201.736328 65.8726587,201.736328 C64.2906274,201.736328 63.2828149,202.955078 63.2828149,204.894531 C63.2828149,206.816406 64.2964868,208.023438 65.8433618,208.023438 C66.722268,208.023438 67.4488305,207.583984 67.7945337,206.916016 L67.8179712,206.916016 L67.8179712,207.929688 C67.8179712,208.773438 67.2320337,209.335938 66.2417993,209.335938 C65.5210962,209.335938 64.9585962,208.996094 64.7769555,208.480469 L63.5054712,208.480469 C63.6636743,209.546875 64.7417993,210.320312 66.1949243,210.320312 Z M66.1832055,206.974609 C65.2105493,206.974609 64.5777368,206.189453 64.5777368,204.900391 C64.5777368,203.617188 65.2105493,202.802734 66.1832055,202.802734 C67.1734399,202.802734 67.8238305,203.634766 67.8238305,204.900391 C67.8238305,206.171875 67.1734399,206.974609 66.1832055,206.974609 Z M77.0515657,208.158203 C78.8152376,208.158203 80.1160188,207.144531 80.1160188,205.65625 C80.1160188,204.472656 79.2839876,203.716797 78.0418001,203.605469 L78.0418001,203.576172 C79.0789094,203.359375 79.8230501,202.650391 79.8230501,201.589844 C79.8230501,200.330078 78.7625032,199.386719 77.0398469,199.386719 C75.3875032,199.386719 74.2332063,200.330078 74.1277376,201.806641 L75.3582063,201.806641 C75.4226594,200.962891 76.1023469,200.464844 77.0398469,200.464844 C78.0359407,200.464844 78.5457063,200.980469 78.5457063,201.771484 C78.5457063,202.5625 77.8894563,203.130859 76.9226594,203.130859 L75.9324251,203.130859 L75.9324251,204.150391 L76.9578157,204.150391 C78.0886751,204.150391 78.7859407,204.689453 78.7800813,205.65625 C78.7742219,206.476562 78.0828157,207.0625 77.0515657,207.0625 C75.9910188,207.0625 75.2703157,206.529297 75.2058626,205.703125 L73.9460969,205.703125 C74.0281282,207.15625 75.2410188,208.158203 77.0515657,208.158203 Z" id="Heading3" fill="#000000" fill-rule="nonzero"></path>
                <rect id="Rectangle" stroke="#E9E9E9" fill="#FFFFFF" x="22" y="73" width="55" height="54" rx="4"></rect>
                <rect id="Rectangle-Copy-7" stroke="#E9E9E9" fill="#FFFFFF" x="153" y="74" width="55" height="54" rx="4"></rect>
                <rect id="Rectangle-Copy-4" stroke="#E9E9E9" fill="#6E27FB" x="88" y="73" width="55" height="54" rx="4"></rect>
                <rect id="Rectangle" fill="#6E27FB" x="22" y="22" width="85" height="28"></rect>
                <rect id="Rectangle-Copy-5" fill="#7D3DFB" x="104" y="22" width="77" height="28"></rect>
                <rect id="Rectangle-Copy-6" fill="#8B52FC" x="179" y="22" width="82" height="28"></rect>
                <g id="sphere" transform="translate(32.000000, 84.000000)" fill="#6E27FB" fill-rule="nonzero">
                    <path d="M13.1217562,21.8782437 C14.5356,21.9574437 15.9758437,22 17.4,22 C25.8758437,22 35,20.6228 35,17.6 C35,7.89504375 27.1049563,0 17.4,0 C14.3757563,0 13,9.12264375 13,17.6 C13,19.0241562 13.0425563,20.4644 13.1217562,21.8782437 Z" id="Path"></path>
                    <path d="M12.0176026,22 C11.9371973,20.3815834 11.9118612,18.8980348 11.9118612,17.7291783 C11.9118612,13.1511806 12.2781524,3.85427609 15,0 C6.50836858,1.38914095 0,8.79789269 0,17.7291783 C0,20.1148677 5.5331044,21.4934721 12.0176026,22 Z" id="Path"></path>
                    <path d="M13,22.9824533 C13.5049825,29.4669213 14.8836571,35 17.2708217,35 C26.2021073,35 33.610859,28.490196 35,20 C31.1457942,22.721835 21.8503648,23.0881244 17.2708217,23.0881244 C16.1019652,23.0881244 14.6184166,23.0628583 13,22.9824533 L13,22.9824533 Z" id="Path"></path>
                    <path d="M0,20 C1.24800625,27.6832714 7.31672859,33.7520647 15,35 C13.1567788,32.4070805 12.3722933,27.3894266 12.060274,22.9412168 C7.61213527,22.6292685 2.59441039,21.8447121 0,20 L0,20 Z" id="Path"></path>
                </g>
                <g id="sphere-copy" transform="translate(98.000000, 84.000000)" fill="#FFFFFF" fill-rule="nonzero">
                    <path d="M13.1217562,21.8782437 C14.5356,21.9574437 15.9758437,22 17.4,22 C25.8758437,22 35,20.6228 35,17.6 C35,7.89504375 27.1049563,0 17.4,0 C14.3757563,0 13,9.12264375 13,17.6 C13,19.0241562 13.0425563,20.4644 13.1217562,21.8782437 Z" id="Path"></path>
                    <path d="M12.0176026,22 C11.9371973,20.3815834 11.9118612,18.8980348 11.9118612,17.7291783 C11.9118612,13.1511806 12.2781524,3.85427609 15,0 C6.50836858,1.38914095 0,8.79789269 0,17.7291783 C0,20.1148677 5.5331044,21.4934721 12.0176026,22 Z" id="Path"></path>
                    <path d="M13,22.9824533 C13.5049825,29.4669213 14.8836571,35 17.2708217,35 C26.2021073,35 33.610859,28.490196 35,20 C31.1457942,22.721835 21.8503648,23.0881244 17.2708217,23.0881244 C16.1019652,23.0881244 14.6184166,23.0628583 13,22.9824533 L13,22.9824533 Z" id="Path"></path>
                    <path d="M0,20 C1.24800625,27.6832714 7.31672859,33.7520647 15,35 C13.1567788,32.4070805 12.3722933,27.3894266 12.060274,22.9412168 C7.61213527,22.6292685 2.59441039,21.8447121 0,20 L0,20 Z" id="Path"></path>
                </g>
                <g id="sphere-copy-2" transform="translate(163.000000, 84.000000)" fill="#000000" fill-rule="nonzero">
                    <path d="M13.1217562,21.8782437 C14.5356,21.9574437 15.9758437,22 17.4,22 C25.8758437,22 35,20.6228 35,17.6 C35,7.89504375 27.1049563,0 17.4,0 C14.3757563,0 13,9.12264375 13,17.6 C13,19.0241562 13.0425563,20.4644 13.1217562,21.8782437 Z" id="Path"></path>
                    <path d="M12.0176026,22 C11.9371973,20.3815834 11.9118612,18.8980348 11.9118612,17.7291783 C11.9118612,13.1511806 12.2781524,3.85427609 15,0 C6.50836858,1.38914095 0,8.79789269 0,17.7291783 C0,20.1148677 5.5331044,21.4934721 12.0176026,22 Z" id="Path"></path>
                    <path d="M13,22.9824533 C13.5049825,29.4669213 14.8836571,35 17.2708217,35 C26.2021073,35 33.610859,28.490196 35,20 C31.1457942,22.721835 21.8503648,23.0881244 17.2708217,23.0881244 C16.1019652,23.0881244 14.6184166,23.0628583 13,22.9824533 L13,22.9824533 Z" id="Path"></path>
                    <path d="M0,20 C1.24800625,27.6832714 7.31672859,33.7520647 15,35 C13.1567788,32.4070805 12.3722933,27.3894266 12.060274,22.9412168 C7.61213527,22.6292685 2.59441039,21.8447121 0,20 L0,20 Z" id="Path"></path>
                </g>
            </g>
        </g>
    </g>
</svg>